<svg xmlns="http://www.w3.org/2000/svg" viewBox="0 0 57.73 64.8"><defs><style>.cls-1{fill:#fbcd00;}.cls-2{fill:#373434;}.cls-3{fill:#8f4316;opacity:0.3;}.cls-4{fill:#e62928;}</style></defs><g id="Réteg_2" data-name="Réteg 2"><g id="Layer_2" data-name="Layer 2"><rect class="cls-1" x="1.5" y="52.34" width="54.73" height="10.96" rx="1.72"/><path class="cls-2" d="M54.51,64.8H3.22A3.22,3.22,0,0,1,0,61.58V54.06a3.22,3.22,0,0,1,3.22-3.22H54.51a3.22,3.22,0,0,1,3.22,3.22v7.52A3.22,3.22,0,0,1,54.51,64.8Zm-51.29-11a.22.22,0,0,0-.22.22v7.52a.22.22,0,0,0,.22.22H54.51a.22.22,0,0,0,.22-.22V54.06a.22.22,0,0,0-.22-.22Z"/><path class="cls-1" d="M53.41,52.34c-1.55-2.29-4.84-8.43-5.76-20.2-1.52-19.46-18.79-19-18.79-19s-17.27-.51-18.78,19c-.92,11.77-4.21,17.91-5.76,20.2Z"/><path class="cls-2" d="M53.41,53.84H4.32A1.5,1.5,0,0,1,3.08,51.5c1.35-2,4.6-7.92,5.5-19.47C9.87,15.51,22.44,11.46,28.91,11.69c6.36-.21,19,3.82,20.24,20.34.9,11.55,4.15,17.46,5.5,19.47a1.5,1.5,0,0,1-1.24,2.34Zm-46.47-3H50.79C49,47.39,46.88,41.5,46.16,32.26,44.77,14.43,29.55,14.67,28.91,14.69S13,14.5,11.57,32.26C10.85,41.49,8.72,47.39,6.94,50.84Z"/><path class="cls-3" d="M54.51,52.34h-1.1c-1.55-2.29-4.84-8.43-5.76-20.2-1.52-19.46-18.79-19-18.79-19a17.53,17.53,0,0,0-3,.27c5,.85,14.67,4.35,15.79,18.68.92,11.77,4.21,17.91,5.76,20.2h1.1a1.72,1.72,0,0,1,1.72,1.72v7.52a1.72,1.72,0,0,1-1.72,1.72h6a1.72,1.72,0,0,0,1.72-1.72V54.06A1.72,1.72,0,0,0,54.51,52.34Z"/><path class="cls-2" d="M54.51,64.8H3.22A3.22,3.22,0,0,1,0,61.58V54.06a3.22,3.22,0,0,1,3.22-3.22H54.51a3.22,3.22,0,0,1,3.22,3.22v7.52A3.22,3.22,0,0,1,54.51,64.8Zm-51.29-11a.22.22,0,0,0-.22.22v7.52a.22.22,0,0,0,.22.22H54.51a.22.22,0,0,0,.22-.22V54.06a.22.22,0,0,0-.22-.22Z"/><path class="cls-2" d="M53.41,53.84H4.32A1.5,1.5,0,0,1,3.08,51.5c1.35-2,4.6-7.92,5.5-19.47C9.87,15.51,22.44,11.46,28.91,11.69c6.36-.21,19,3.82,20.24,20.34.9,11.55,4.15,17.46,5.5,19.47a1.5,1.5,0,0,1-1.24,2.34Zm-46.47-3H50.79C49,47.39,46.88,41.5,46.16,32.26,44.77,14.43,29.55,14.67,28.91,14.69S13,14.5,11.57,32.26C10.85,41.49,8.72,47.39,6.94,50.84Z"/><polyline class="cls-4" points="28.86 13.19 33.63 32.1 37.24 27.11 44.14 28.46 33.63 13.24"/><path class="cls-2" d="M33.63,33.6a1.32,1.32,0,0,1-.28,0,1.49,1.49,0,0,1-1.17-1.11L27.41,13.55a1.5,1.5,0,1,1,2.91-.73l4,15.8L36,26.23a1.49,1.49,0,0,1,1.5-.6l3.29.65L32.4,14.1a1.5,1.5,0,0,1,2.47-1.71l10.5,15.22a1.5,1.5,0,0,1-1.52,2.32l-6-1.17-3,4.22A1.49,1.49,0,0,1,33.63,33.6Z"/><polyline class="cls-4" points="28.86 13.19 24.1 32.1 20.49 27.11 13.59 28.46 24.1 13.24"/><path class="cls-2" d="M24.1,33.6A1.48,1.48,0,0,1,22.88,33l-3-4.22-6,1.17a1.5,1.5,0,0,1-1.53-2.32L22.86,12.39a1.5,1.5,0,0,1,2.47,1.71L16.92,26.28l3.28-.65a1.51,1.51,0,0,1,1.51.6l1.72,2.38,4-15.79a1.5,1.5,0,0,1,2.91.73L25.55,32.47a1.49,1.49,0,0,1-1.17,1.11A1.37,1.37,0,0,1,24.1,33.6Z"/><path class="cls-4" d="M28.86,13.19S18.36-4,9,3.29C3.1,7.9,3.91,11.41,5.28,13.35a3.84,3.84,0,0,0,3.48,1.57Z"/><path class="cls-2" d="M8.42,16.44a5.34,5.34,0,0,1-4.36-2.22C2.53,12.06,1,7.62,8.11,2.11A9.23,9.23,0,0,1,15.7.16C23.43,1.57,29.87,12,30.14,12.4a1.49,1.49,0,0,1,.06,1.46,1.47,1.47,0,0,1-1.21.82L8.89,16.42ZM14,3a6.39,6.39,0,0,0-4,1.48c-3.9,3-5.06,5.73-3.45,8a2.38,2.38,0,0,0,2.13.95l17.54-1.52c-2.15-2.91-6.47-8-11-8.8A7.14,7.14,0,0,0,14,3Z"/><path class="cls-4" d="M28.86,13.19S39.37-4,48.7,3.29c5.92,4.61,5.12,8.12,3.75,10.06A3.85,3.85,0,0,1,49,14.92Z"/><path class="cls-2" d="M49.31,16.44l-.47,0L28.73,14.68a1.5,1.5,0,0,1-1.21-.82,1.52,1.52,0,0,1,.06-1.46C27.85,12,34.3,1.57,42,.16a9.24,9.24,0,0,1,7.59,2c7.08,5.51,5.58,10,4.05,12.11A5.36,5.36,0,0,1,49.31,16.44ZM31.56,11.91,49.1,13.43a2.35,2.35,0,0,0,2.12-.95c1.61-2.27.46-5-3.44-8a6.31,6.31,0,0,0-5.22-1.37C38,3.94,33.7,9,31.56,11.91Z"/><rect class="cls-4" x="24.32" y="7.34" width="9.32" height="5.9"/><path class="cls-2" d="M33.63,14.75H24.32a1.5,1.5,0,0,1-1.5-1.5V7.34a1.5,1.5,0,0,1,1.5-1.5h9.31a1.5,1.5,0,0,1,1.5,1.5v5.91A1.5,1.5,0,0,1,33.63,14.75Zm-7.81-3h6.31V8.84H25.82Z"/><path class="cls-4" d="M5.32,7.86a31.06,31.06,0,0,1,19,5.38"/><path class="cls-2" d="M24.32,14.75a1.57,1.57,0,0,1-.85-.26,29.66,29.66,0,0,0-18-5.13,1.5,1.5,0,0,1-.32-3,32.37,32.37,0,0,1,20,5.63,1.5,1.5,0,0,1-.84,2.75Z"/><path class="cls-4" d="M52.23,7.9A32.1,32.1,0,0,0,32.7,13.24"/><path class="cls-2" d="M32.7,14.75a1.52,1.52,0,0,1-1.24-.66,1.5,1.5,0,0,1,.4-2.09A33.43,33.43,0,0,1,52.39,6.41a1.5,1.5,0,0,1-.31,3,30.92,30.92,0,0,0-18.54,5.1A1.54,1.54,0,0,1,32.7,14.75Z"/></g></g></svg>