<svg xmlns="http://www.w3.org/2000/svg" viewBox="0 0 69.17 69.17"><defs><style>.cls-1{fill:#e62928;}.cls-2{fill:#fbcd00;}.cls-3{fill:#12100b;opacity:0.15;}.cls-4{fill:#373434;}</style></defs><g id="Réteg_2" data-name="Réteg 2"><g id="Layer_2" data-name="Layer 2"><circle class="cls-1" cx="34.59" cy="34.59" r="33.09"/><path class="cls-2" d="M39.18,1.82a33.31,33.31,0,0,0-9.49,0V30H1.82a34.23,34.23,0,0,0-.32,4.56,33.46,33.46,0,0,0,.37,4.93H29.69V67.31a33.31,33.31,0,0,0,9.49,0V39.52H67.31a33.46,33.46,0,0,0,.37-4.93A32.63,32.63,0,0,0,67.35,30H39.18Z"/><path class="cls-3" d="M54.79,8.39a33.08,33.08,0,0,1-46.4,46.4,33.08,33.08,0,1,0,46.4-46.4Z"/><path class="cls-4" d="M34.59,69.17A34.59,34.59,0,1,1,69.17,34.59,34.62,34.62,0,0,1,34.59,69.17ZM34.59,3A31.59,31.59,0,1,0,66.17,34.59,31.62,31.62,0,0,0,34.59,3Z"/><path class="cls-4" d="M34.59,69.17a33.93,33.93,0,0,1-5.12-.38,1.5,1.5,0,0,1-1.28-1.48V41H1.87A1.51,1.51,0,0,1,.38,39.74a34.87,34.87,0,0,1,0-9.92,1.51,1.51,0,0,1,1.49-1.29H28.19V1.86A1.5,1.5,0,0,1,29.47.38a34.69,34.69,0,0,1,9.92,0,1.5,1.5,0,0,1,1.29,1.49v26.7H67.35a1.5,1.5,0,0,1,1.49,1.29,35.31,35.31,0,0,1,.33,4.77,34.23,34.23,0,0,1-.38,5.15A1.5,1.5,0,0,1,67.31,41H40.68V67.35a1.49,1.49,0,0,1-1.29,1.48A34.21,34.21,0,0,1,34.59,69.17ZM31.19,66a31.26,31.26,0,0,0,6.49,0V39.52a1.5,1.5,0,0,1,1.5-1.5H66a32.84,32.84,0,0,0,.18-3.43c0-1,0-2-.15-3.06H39.18a1.5,1.5,0,0,1-1.5-1.5V3.16a31.27,31.27,0,0,0-6.49,0V30a1.5,1.5,0,0,1-1.5,1.5H3.15Q3,33.09,3,34.59A30.33,30.33,0,0,0,3.19,38h26.5a1.5,1.5,0,0,1,1.5,1.5Z"/><polyline class="cls-2" points="34.59 33.74 39.66 53.85 43.49 48.54 50.82 49.98 39.66 33.81"/><path class="cls-4" d="M39.66,55.35l-.29,0a1.52,1.52,0,0,1-1.17-1.11L33.13,34.11A1.5,1.5,0,0,1,36,33.38l4.28,17,2-2.7a1.49,1.49,0,0,1,1.51-.59l3.71.73L38.42,34.66A1.5,1.5,0,1,1,40.89,33L52.06,49.12a1.53,1.53,0,0,1,0,1.68,1.5,1.5,0,0,1-1.54.65l-6.4-1.25-3.27,4.53A1.5,1.5,0,0,1,39.66,55.35Z"/><polyline class="cls-2" points="34.59 33.74 29.52 53.85 25.69 48.54 18.35 49.98 29.52 33.81"/><path class="cls-4" d="M29.52,55.35a1.52,1.52,0,0,1-1.22-.62L25,50.2l-6.39,1.25a1.5,1.5,0,0,1-1.52-2.33L28.29,33a1.5,1.5,0,1,1,2.46,1.71L21.68,47.8l3.72-.73a1.51,1.51,0,0,1,1.51.59l1.94,2.7,4.28-17A1.51,1.51,0,0,1,35,32.29,1.49,1.49,0,0,1,36,34.11L31,54.22a1.51,1.51,0,0,1-1.17,1.11Z"/><path class="cls-2" d="M34.59,33.74S23.42,15.51,13.51,23.23c-6.3,4.9-5.45,8.62-4,10.69a4.11,4.11,0,0,0,3.7,1.67Z"/><path class="cls-4" d="M12.85,37.1A5.56,5.56,0,0,1,8.3,34.78C6.69,32.52,5.12,27.85,12.58,22a9.78,9.78,0,0,1,8-2.05c8.17,1.49,15,12.5,15.29,13a1.52,1.52,0,0,1,.06,1.46,1.5,1.5,0,0,1-1.21.82L13.35,37.08A4.18,4.18,0,0,1,12.85,37.1Zm5.9-14.28a6.9,6.9,0,0,0-4.32,1.59c-4.19,3.26-5.43,6.17-3.68,8.64a2.59,2.59,0,0,0,2.34,1L31.9,32.47C29.64,29.39,25,23.84,20,22.94A7.2,7.2,0,0,0,18.75,22.82Z"/><path class="cls-2" d="M34.59,33.74S45.75,15.51,55.67,23.23c6.3,4.9,5.45,8.62,4,10.69A4.08,4.08,0,0,1,56,35.59Z"/><path class="cls-4" d="M56.32,37.1a4,4,0,0,1-.49,0L34.46,35.24a1.47,1.47,0,0,1-1.21-.82A1.49,1.49,0,0,1,33.31,33c.28-.47,7.11-11.48,15.28-13a9.77,9.77,0,0,1,8,2.05c7.47,5.81,5.89,10.48,4.29,12.74A5.58,5.58,0,0,1,56.32,37.1Zm-19-4.63,18.81,1.62a2.57,2.57,0,0,0,2.34-1c1.75-2.47.51-5.38-3.68-8.64a6.75,6.75,0,0,0-5.61-1.47C44.21,23.84,39.53,29.39,37.28,32.47Z"/><rect class="cls-2" x="29.75" y="27.53" width="9.9" height="6.27"/><path class="cls-4" d="M39.66,35.31H29.75a1.51,1.51,0,0,1-1.5-1.5V27.53a1.51,1.51,0,0,1,1.5-1.5h9.91a1.51,1.51,0,0,1,1.5,1.5v6.28A1.51,1.51,0,0,1,39.66,35.31Zm-8.41-3h6.91V29H31.25Z"/><path class="cls-2" d="M9.57,28.09a32.91,32.91,0,0,1,20.18,5.72"/><path class="cls-4" d="M29.75,35.31a1.54,1.54,0,0,1-.84-.26A31.61,31.61,0,0,0,9.73,29.58a1.5,1.5,0,0,1-.32-3,34.25,34.25,0,0,1,21.19,6,1.5,1.5,0,0,1-.85,2.75Z"/><path class="cls-2" d="M59.43,28.13a34.08,34.08,0,0,0-20.76,5.68"/><path class="cls-4" d="M38.67,35.31a1.5,1.5,0,0,1-.85-2.75,35.46,35.46,0,0,1,21.76-5.93,1.5,1.5,0,0,1-.31,3h0a32.81,32.81,0,0,0-19.76,5.43A1.54,1.54,0,0,1,38.67,35.31Z"/></g></g></svg>