<svg xmlns="http://www.w3.org/2000/svg" viewBox="0 0 74.41 72.86"><defs><style>.cls-1{fill:#fff;}.cls-2{fill:#12100b;opacity:0.15;}.cls-3{fill:#373434;}.cls-4{fill:#373433;}.cls-5{fill:#6a453f;}.cls-6{fill:#e62928;}</style></defs><g id="Réteg_2" data-name="Réteg 2"><g id="Layer_2" data-name="Layer 2"><path class="cls-1" d="M47,28a15.06,15.06,0,1,0-19.59,0A22.81,22.81,0,1,0,47,28Z"/><path class="cls-2" d="M47,28A15,15,0,0,0,37.21,1.5a14.82,14.82,0,0,0-3,.3A15,15,0,0,1,41,28a22.8,22.8,0,0,1-6.79,43.19A22.8,22.8,0,0,0,47,28Z"/><path class="cls-3" d="M37.21,72.86A24.3,24.3,0,0,1,24.9,27.61a16.56,16.56,0,1,1,24.61,0,24.3,24.3,0,0,1-12.3,45.25ZM37.21,3a13.54,13.54,0,0,0-8.82,23.83,1.5,1.5,0,0,1-.33,2.49,21.31,21.31,0,1,0,18.29,0A1.5,1.5,0,0,1,46,26.83,13.54,13.54,0,0,0,37.21,3Z"/><circle class="cls-4" cx="31.86" cy="15.02" r="2.39"/><circle class="cls-4" cx="42.55" cy="15.02" r="2.39"/><circle class="cls-4" cx="37.21" cy="37.06" r="2.39"/><circle class="cls-4" cx="37.21" cy="45.02" r="2.39"/><circle class="cls-4" cx="37.21" cy="52.98" r="2.39"/><path class="cls-5" d="M22.78,34.82l-6.36-7.76-2.55-9.84A2.36,2.36,0,1,0,9.31,18.4l1.54,6L4.68,22.1A2.36,2.36,0,0,0,3,26.52l9.81,3.63,6.28,7.66a2.36,2.36,0,1,0,3.65-3Z"/><path class="cls-3" d="M21,40.17a3.82,3.82,0,0,1-3-1.41l-6-7.35L2.52,27.93a3.89,3.89,0,0,1-2.17-2,3.82,3.82,0,0,1-.11-3,3.87,3.87,0,0,1,5-2.28L8.68,22l-.83-3.2a3.87,3.87,0,0,1,.41-2.92,3.82,3.82,0,0,1,2.36-1.78,3.86,3.86,0,0,1,4.7,2.76l2.47,9.53,6.15,7.5a3.85,3.85,0,0,1-3,6.3ZM3.86,23.45a.87.87,0,0,0-.78,1.22.86.86,0,0,0,.48.44l9.81,3.63a1.46,1.46,0,0,1,.64.46l6.28,7.66a.85.85,0,0,0,.66.31.85.85,0,0,0,.67-1.4h0L15.26,28a1.4,1.4,0,0,1-.29-.57L12.42,17.6a.89.89,0,0,0-.4-.53.84.84,0,0,0-.64-.09.86.86,0,0,0-.53.4.82.82,0,0,0-.09.65l1.55,6a1.51,1.51,0,0,1-2,1.79L4.16,23.5A1,1,0,0,0,3.86,23.45Z"/><path class="cls-5" d="M51.63,34.82,58,27.06l2.55-9.84A2.36,2.36,0,0,1,65.1,18.4l-1.54,6,6.17-2.28a2.36,2.36,0,0,1,1.64,4.42l-9.81,3.63-6.28,7.66a2.37,2.37,0,0,1-3.32.33A2.37,2.37,0,0,1,51.63,34.82Z"/><path class="cls-3" d="M53.46,40.17a3.85,3.85,0,0,1-3-6.3l6.15-7.5,2.47-9.53a3.83,3.83,0,0,1,1.78-2.35,3.78,3.78,0,0,1,2.92-.41,3.85,3.85,0,0,1,2.77,4.7L65.73,22l3.48-1.29a3.88,3.88,0,0,1,5,2.28,3.82,3.82,0,0,1-.11,3,3.89,3.89,0,0,1-2.17,2l-9.43,3.48-6,7.35A3.82,3.82,0,0,1,53.46,40.17ZM62.82,17a.82.82,0,0,0-.43.12.89.89,0,0,0-.4.53l-2.55,9.84a1.4,1.4,0,0,1-.29.57l-6.36,7.76h0a.85.85,0,0,0,.67,1.4.83.83,0,0,0,.66-.31L60.4,29.2a1.46,1.46,0,0,1,.64-.46l9.81-3.63a.86.86,0,0,0,.48-.44.84.84,0,0,0,0-.66.88.88,0,0,0-1.11-.51l-6.17,2.29a1.51,1.51,0,0,1-2-1.79l1.55-6a.82.82,0,0,0-.09-.65.86.86,0,0,0-.74-.43ZM51.63,34.82h0Z"/><polygon class="cls-6" points="44.94 31.86 44.94 47.87 47.97 45.87 51.1 47.87 51.1 30.39 44.94 31.86"/><path class="cls-3" d="M44.94,49.37a1.5,1.5,0,0,1-1.5-1.5v-16a1.5,1.5,0,0,1,1.15-1.46l6.16-1.47a1.5,1.5,0,0,1,1.85,1.46V47.87a1.49,1.49,0,0,1-2.31,1.26L48,47.66l-2.21,1.46A1.47,1.47,0,0,1,44.94,49.37Zm3-5a1.5,1.5,0,0,1,.81.24l.82.52V32.29L46.44,33v12l.7-.46A1.47,1.47,0,0,1,48,44.37Z"/><path class="cls-6" d="M23.31,28.06s11.79,5.78,27.79,0"/><path class="cls-3" d="M36.75,32.15a34.32,34.32,0,0,1-14.1-2.74A1.5,1.5,0,0,1,24,26.71c.17.09,11.51,5.4,26.62-.06a1.5,1.5,0,0,1,1,2.82A43.66,43.66,0,0,1,36.75,32.15Z"/><path class="cls-6" d="M36.78,33.64A36,36,0,0,1,22,30.76a3,3,0,0,1,2.63-5.4c.17.08,11,5.1,25.46-.12a3,3,0,1,1,2,5.64A45.08,45.08,0,0,1,36.78,33.64Z"/><path class="cls-3" d="M36.78,35.14a36.91,36.91,0,0,1-15.45-3,4.39,4.39,0,0,1-2.27-2.58,4.47,4.47,0,0,1,.21-3.44,4.52,4.52,0,0,1,6-2.07c.1,0,10.52,4.8,24.3-.18a4.5,4.5,0,0,1,3.06,8.47A46.74,46.74,0,0,1,36.78,35.14ZM23.31,26.56a1.5,1.5,0,0,0-.66,2.85,34.45,34.45,0,0,0,14.13,2.73,43.59,43.59,0,0,0,14.83-2.67,1.48,1.48,0,0,0,.9-1.91,1.5,1.5,0,0,0-.77-.85,1.53,1.53,0,0,0-1.15-.06c-15.12,5.46-26.51.12-26.62.07A1.4,1.4,0,0,0,23.31,26.56Z"/></g></g></svg>