<svg xmlns="http://www.w3.org/2000/svg" viewBox="0 0 53.08 71.93"><defs><style>.cls-1{fill:#91bc22;}.cls-2{fill:#fbcd00;}.cls-3{fill:#373434;}.cls-4{fill:#12100b;opacity:0.15;}.cls-5{fill:#373333;}.cls-6{fill:#8f4316;opacity:0.3;}</style></defs><g id="Réteg_2" data-name="Réteg 2"><g id="Layer_2" data-name="Layer 2"><path class="cls-1" d="M51.37,68.53,42.3,55.24h4.14a1.22,1.22,0,0,0,1-1.9L35.67,36.09h2.41a1.21,1.21,0,0,0,1-1.9L31.51,23.1l-4.73-2.48a.51.51,0,0,0-.48,0L21.57,23.1,14,34.19a1.22,1.22,0,0,0,1,1.9h2.4L5.64,53.34a1.21,1.21,0,0,0,1,1.9h4.14L1.71,68.53a1.22,1.22,0,0,0,1,1.9H50.37A1.22,1.22,0,0,0,51.37,68.53Z"/><path class="cls-2" d="M27,1.78l3.27,6.63a.5.5,0,0,0,.38.28L38,9.75a.51.51,0,0,1,.28.87L33,15.78a.51.51,0,0,0-.15.45l1.25,7.28a.51.51,0,0,1-.74.54l-6.54-3.43a.51.51,0,0,0-.48,0l-6.54,3.43a.51.51,0,0,1-.74-.54l1.25-7.28a.49.49,0,0,0-.15-.45l-5.29-5.16a.51.51,0,0,1,.29-.87l7.31-1.06a.48.48,0,0,0,.38-.28l3.27-6.63A.51.51,0,0,1,27,1.78Z"/><path class="cls-3" d="M19.52,25.61a2,2,0,0,1-2-2.35l1.17-6.77L13.79,11.7A2,2,0,0,1,14.9,8.27l6.8-1,3-6.16A2,2,0,0,1,26.54,0a2,2,0,0,1,1.81,1.12l3,6.16,6.79,1A2,2,0,0,1,39.8,9.63a2,2,0,0,1-.5,2.07l-4.92,4.79,1.16,6.77a2,2,0,0,1-2.92,2.12l-6.08-3.19-6.08,3.19A2,2,0,0,1,19.52,25.61Zm1-1.84Zm5.58-1.83h0Zm.93,0h0Zm-.47-2.88a2,2,0,0,1,.94.23l4.76,2.5-.91-5.3a2,2,0,0,1,.58-1.78L35.77,11l-5.33-.78a2,2,0,0,1-1.52-1.1L26.54,4.25,24.16,9.07a2,2,0,0,1-1.51,1.1L17.32,11l3.85,3.76a2,2,0,0,1,.58,1.78l-.91,5.3,4.77-2.5A1.91,1.91,0,0,1,26.54,19.06Zm11.21-7.82Zm-6.14-3.5h0Zm-6-5.29Z"/><path class="cls-4" d="M18.4,70.43h32a1.22,1.22,0,0,0,1-1.9L42.3,55.24h4.14a1.22,1.22,0,0,0,1-1.9L35.67,36.09h2.41a1.21,1.21,0,0,0,1-1.9L31.51,23.1l-4.73-2.48a.51.51,0,0,0-.48,0S43.91,62.41,18.4,70.43Z"/><path class="cls-5" d="M50.37,71.93H2.72A2.73,2.73,0,0,1,.47,67.68L7.94,56.74H6.64A2.71,2.71,0,0,1,4.4,52.5L14.59,37.56a2.72,2.72,0,0,1-1.83-4.22l7.57-11.08a1.47,1.47,0,0,1,.54-.48l4.74-2.49a2,2,0,0,1,1.87,0l4.73,2.49a1.47,1.47,0,0,1,.54.48l7.57,11.08a2.72,2.72,0,0,1-1.83,4.22L48.69,52.5a2.71,2.71,0,0,1-2.25,4.24h-1.3l7.47,10.94h0a2.72,2.72,0,0,1-2.24,4.25Zm-.24-2.56ZM3.25,68.93H49.83L41.06,56.09a1.51,1.51,0,0,1,1.24-2.35h3.61L34.43,36.94a1.51,1.51,0,0,1-.08-1.55,1.49,1.49,0,0,1,1.32-.8h1.87l-7-10.33-3.95-2.08L22.6,24.26,15.54,34.59h1.87a1.5,1.5,0,0,1,1.24,2.35L7.18,53.74h3.6A1.5,1.5,0,0,1,12,56.09Z"/><path class="cls-6" d="M34.06,23.51l-1.25-7.28a.51.51,0,0,1,.15-.45l5.29-5.16A.51.51,0,0,0,38,9.75L30.65,8.69a.5.5,0,0,1-.38-.28L27,1.78l-.22,18.84,6.54,3.43A.51.51,0,0,0,34.06,23.51Z"/><path class="cls-3" d="M19.52,25.61a2,2,0,0,1-2-2.35l1.17-6.77L13.79,11.7A2,2,0,0,1,14.9,8.27l6.8-1,3-6.16A2,2,0,0,1,26.54,0a2,2,0,0,1,1.81,1.12l3,6.16,6.79,1A2,2,0,0,1,39.8,9.63a2,2,0,0,1-.5,2.07l-4.92,4.79,1.16,6.77a2,2,0,0,1-2.92,2.12l-6.08-3.19-6.08,3.19A2,2,0,0,1,19.52,25.61Zm1-1.84Zm5.58-1.83h0Zm.93,0h0Zm-.47-2.88a2,2,0,0,1,.94.23l4.76,2.5-.91-5.3a2,2,0,0,1,.58-1.78L35.77,11l-5.33-.78a2,2,0,0,1-1.52-1.1L26.54,4.25,24.16,9.07a2,2,0,0,1-1.51,1.1L17.32,11l3.85,3.76a2,2,0,0,1,.58,1.78l-.91,5.3,4.77-2.5A1.91,1.91,0,0,1,26.54,19.06Zm11.21-7.82Zm-6.14-3.5h0Zm-6-5.29Z"/></g></g></svg>