<svg xmlns="http://www.w3.org/2000/svg" viewBox="0 0 61.36 71.86"><defs><style>.cls-1{fill:#e62928;}.cls-2{fill:#373434;}.cls-3{fill:#45413f;}.cls-4{fill:#fff;}.cls-5{opacity:0.15;}.cls-6{fill:#12100b;}.cls-7{fill:#fbcd00;}</style></defs><g id="Réteg_2" data-name="Réteg 2"><g id="Layer_2" data-name="Layer 2"><path class="cls-1" d="M7.72,55a87.6,87.6,0,0,0,19.91,2.52,81.88,81.88,0,0,0,20.13-2.71,2.73,2.73,0,0,0,1-1.94s-2-10.4-11.17-30.61c0,0,6.24,1.68,8.71,2.13a2.76,2.76,0,0,0,2.43-4.68S36.72,6.4,31.1,2.54c-3.06-2-6.37-1-8.13,2.14A131.29,131.29,0,0,0,6.51,52.91,2.93,2.93,0,0,0,7.72,55Z"/><path class="cls-2" d="M27.63,59.06A89.53,89.53,0,0,1,7.36,56.49a1.45,1.45,0,0,1-.63-.32A4.33,4.33,0,0,1,5,52.91a.66.66,0,0,1,0-.14A134.05,134.05,0,0,1,21.67,3.92,7.41,7.41,0,0,1,26.28.19a7.17,7.17,0,0,1,5.64,1.09C37.65,5.22,49.34,18.2,49.83,18.75a4.13,4.13,0,0,1,.75,4.92A4.19,4.19,0,0,1,46,25.9c-1.37-.25-3.82-.85-5.79-1.36,8,18.26,9.91,27.67,10,28.08a1.43,1.43,0,0,1,0,.29,4.2,4.2,0,0,1-1.45,3,1.59,1.59,0,0,1-.66.37A84,84,0,0,1,27.63,59.06ZM8.46,53.67a86.4,86.4,0,0,0,19.17,2.39A80.34,80.34,0,0,0,47,53.51a1.36,1.36,0,0,0,.27-.5c-.32-1.47-2.72-11.75-11-30.09A1.51,1.51,0,0,1,38,20.85c.06,0,6.21,1.67,8.59,2.1a1.25,1.25,0,0,0,1.11-2.13c-.18-.2-12-13.33-17.42-17A4.09,4.09,0,0,0,27,3.1a4.41,4.41,0,0,0-2.72,2.3A131.34,131.34,0,0,0,8,53,1.54,1.54,0,0,0,8.46,53.67Z"/><path class="cls-3" d="M48.75,52.91s-.4-2-1.64-6.09a74.89,74.89,0,0,1-19.48,2.8A79.32,79.32,0,0,1,7.45,46.76c-.72,3.86-.94,6.15-.94,6.15,0,3.55,9.46,6.43,21.12,6.43S48.75,56.46,48.75,52.91Z"/><path class="cls-2" d="M27.63,60.84C16.39,60.84,5,58.12,5,52.91a.61.61,0,0,1,0-.14c0-.1.23-2.4,1-6.28a1.51,1.51,0,0,1,.68-1,1.49,1.49,0,0,1,1.2-.18,78,78,0,0,0,19.78,2.81,73.15,73.15,0,0,0,19.08-2.75,1.49,1.49,0,0,1,1.83,1c1.25,4.07,1.67,6.16,1.68,6.24a1.43,1.43,0,0,1,0,.29C50.25,58.12,38.87,60.84,27.63,60.84ZM8,53c.15,1.69,7.06,4.88,19.62,4.88S47,54.72,47.24,53c-.1-.49-.44-2-1.15-4.38a75.35,75.35,0,0,1-18.46,2.48,80.25,80.25,0,0,1-19-2.49C8.23,51,8.05,52.59,8,53Z"/><path class="cls-4" d="M37.58,22.3A38,38,0,0,1,28,18.06"/><path class="cls-2" d="M37.58,23.8a1.74,1.74,0,0,1-.39-.05,39.31,39.31,0,0,1-10-4.43,1.5,1.5,0,0,1,1.65-2.51,36.41,36.41,0,0,0,9.11,4,1.5,1.5,0,0,1-.39,2.95Z"/><circle class="cls-4" cx="53.76" cy="27.17" r="6.1"/><path class="cls-2" d="M53.76,34.77a7.61,7.61,0,1,1,7.6-7.61A7.61,7.61,0,0,1,53.76,34.77Zm0-12.21a4.61,4.61,0,1,0,4.6,4.6A4.61,4.61,0,0,0,53.76,22.56Z"/><path class="cls-4" d="M53.76,62.4s-.26-2-1-5.58A3,3,0,0,0,49,54.52a82.56,82.56,0,0,1-21.39,3,88.43,88.43,0,0,1-21.76-3A3,3,0,0,0,2.11,57.1c-.46,3.36-.61,5.3-.61,5.3,0,4.4,11.7,8,26.13,8S53.76,66.8,53.76,62.4Z"/><g class="cls-5"><path class="cls-6" d="M25.1,2.54C30.72,6.4,42.72,19.75,42.72,19.75a2.7,2.7,0,0,1,.35,3.51,10.68,10.68,0,0,0,5.11,1.44c.61,0,1.38-1.95,1.34-3.38a2.65,2.65,0,0,0-.8-1.57S36.72,6.4,31.1,2.54a5.3,5.3,0,0,0-6.17-.1Z"/><path class="cls-6" d="M42.8,23.64l.08-.13a1.36,1.36,0,0,1-.12.12Z"/><path class="cls-6" d="M53.76,21.06a6.11,6.11,0,0,0-3,.8,6.09,6.09,0,0,1,0,10.61,6,6,0,0,0,3,.8,6.11,6.11,0,0,0,0-12.21Z"/><path class="cls-6" d="M49,54.52c-.4.12-.84.22-1.26.33a2.73,2.73,0,0,0,1-1.94l0-.09h0q0-.09-.06-.27v0c-.15-.64-.48-2.07-1.13-4.27v0A197.38,197.38,0,0,0,38.35,24a37.9,37.9,0,0,1-7.13-3A215.49,215.49,0,0,1,41.54,48.23v0c.65,2.2,1,3.63,1.13,4.27v0q0,.18.06.27h0l0,.09a2.73,2.73,0,0,1-1,1.94c.42-.11.86-.21,1.26-.33a3,3,0,0,1,3.74,2.3c.74,3.57,1,5.58,1,5.58,0,4.09-10.11,7.45-23.13,7.91,1,0,2,0,3,0,14.43,0,26.13-3.56,26.13-8,0,0-.26-2-1-5.58A3,3,0,0,0,49,54.52Z"/></g><path class="cls-2" d="M53.76,34.77a7.61,7.61,0,1,1,7.6-7.61A7.61,7.61,0,0,1,53.76,34.77Zm0-12.21a4.61,4.61,0,1,0,4.6,4.6A4.61,4.61,0,0,0,53.76,22.56Z"/><path class="cls-2" d="M27.63,59.06A89.53,89.53,0,0,1,7.36,56.49a1.45,1.45,0,0,1-.63-.32A4.33,4.33,0,0,1,5,52.91a.61.61,0,0,1,0-.14c0-.1.23-2.4,1-6.28a1.51,1.51,0,0,1,1.88-1.18,78,78,0,0,0,19.78,2.81,73.08,73.08,0,0,0,19.08-2.75,1.49,1.49,0,0,1,1.83,1c1.25,4.07,1.67,6.16,1.68,6.24a1.43,1.43,0,0,1,0,.29,4.2,4.2,0,0,1-1.45,3,1.59,1.59,0,0,1-.66.37A84,84,0,0,1,27.63,59.06ZM8.46,53.67a86.4,86.4,0,0,0,19.17,2.39A80.34,80.34,0,0,0,47,53.51a1.36,1.36,0,0,0,.27-.5c-.11-.49-.44-2-1.15-4.37a75.35,75.35,0,0,1-18.46,2.48,80.25,80.25,0,0,1-19-2.49C8.23,51,8.05,52.57,8,53A1.54,1.54,0,0,0,8.46,53.67Z"/><path class="cls-2" d="M27.63,71.86C13.9,71.86,0,68.61,0,62.4v-.12c0-.08.17-2,.62-5.38a4.55,4.55,0,0,1,2-3.17,4.48,4.48,0,0,1,3.65-.61,86.89,86.89,0,0,0,21.37,2.94,82,82,0,0,0,21-3,4.51,4.51,0,0,1,5.61,3.44c.74,3.58,1,5.6,1,5.69a1.21,1.21,0,0,1,0,.19C55.26,68.61,41.36,71.86,27.63,71.86ZM3,62.45c.12,2.63,9.69,6.41,24.63,6.41s24.43-3.75,24.63-6.38c-.07-.46-.35-2.36-1-5.35a1.52,1.52,0,0,0-.7-1A1.49,1.49,0,0,0,49.42,56a85.15,85.15,0,0,1-21.79,3.09A90.72,90.72,0,0,1,5.48,56a1.45,1.45,0,0,0-1.21.2,1.56,1.56,0,0,0-.68,1.08C3.2,60.22,3,62.08,3,62.45Z"/><path class="cls-2" d="M27.63,59.06A89.53,89.53,0,0,1,7.36,56.49a1.45,1.45,0,0,1-.63-.32A4.33,4.33,0,0,1,5,52.91a.66.66,0,0,1,0-.14A134.05,134.05,0,0,1,21.67,3.92,7.41,7.41,0,0,1,26.28.19a7.17,7.17,0,0,1,5.64,1.09C37.65,5.22,49.34,18.2,49.83,18.75a4.13,4.13,0,0,1,.75,4.92A4.19,4.19,0,0,1,46,25.9c-1.37-.25-3.82-.85-5.79-1.36,8,18.26,9.91,27.67,10,28.08a1.43,1.43,0,0,1,0,.29,4.2,4.2,0,0,1-1.45,3,1.59,1.59,0,0,1-.66.37A84,84,0,0,1,27.63,59.06ZM8.46,53.67a86.4,86.4,0,0,0,19.17,2.39A80.34,80.34,0,0,0,47,53.51a1.36,1.36,0,0,0,.27-.5c-.32-1.47-2.72-11.75-11-30.09A1.51,1.51,0,0,1,38,20.85c.06,0,6.21,1.67,8.59,2.1a1.25,1.25,0,0,0,1.11-2.13c-.18-.2-12-13.33-17.42-17A4.09,4.09,0,0,0,27,3.1a4.41,4.41,0,0,0-2.72,2.3A131.34,131.34,0,0,0,8,53,1.54,1.54,0,0,0,8.46,53.67Z"/><rect class="cls-7" x="20.15" y="47.18" width="14.83" height="13.2" rx="2.81"/><path class="cls-2" d="M32.17,61.89H23a4.33,4.33,0,0,1-4.32-4.32V50A4.33,4.33,0,0,1,23,45.68h9.2A4.33,4.33,0,0,1,36.49,50v7.57A4.33,4.33,0,0,1,32.17,61.89ZM23,48.68A1.32,1.32,0,0,0,21.65,50v7.57A1.32,1.32,0,0,0,23,58.89h9.2a1.32,1.32,0,0,0,1.32-1.32V50a1.32,1.32,0,0,0-1.32-1.32Z"/><line class="cls-4" x1="25.2" y1="53.79" x2="29.75" y2="53.79"/><path class="cls-2" d="M29.75,55.28H25.2a1.5,1.5,0,0,1,0-3h4.55a1.5,1.5,0,0,1,0,3Z"/></g></g></svg>