<svg xmlns="http://www.w3.org/2000/svg" viewBox="0 0 70.55 72.16"><defs><style>.cls-1{fill:#fbcd00;}.cls-2{fill:#373434;}.cls-3{fill:#8f4316;opacity:0.3;}.cls-4{fill:#fff;}.cls-5{fill:#e62928;}.cls-6{fill:#12100b;opacity:0.15;}</style></defs><g id="Réteg_2" data-name="Réteg 2"><g id="Layer_2" data-name="Layer 2"><polygon class="cls-1" points="55.41 70.66 7.57 70.66 1.5 58.06 61.48 58.06 55.41 70.66"/><path class="cls-2" d="M55.41,72.16H7.57a1.51,1.51,0,0,1-1.36-.85L.15,58.72A1.51,1.51,0,0,1,1.5,56.56h60a1.51,1.51,0,0,1,1.36,2.16L56.76,71.31A1.5,1.5,0,0,1,55.41,72.16Zm-46.9-3h46l4.62-9.6H3.89Z"/><polygon class="cls-3" points="53.48 58.06 47.41 70.66 55.41 70.66 61.48 58.06 53.48 58.06"/><rect class="cls-4" x="20.49" y="22.43" width="21.99" height="35.64"/><path class="cls-2" d="M42.48,59.56h-22a1.5,1.5,0,0,1-1.5-1.5V22.43a1.5,1.5,0,0,1,1.5-1.5h22a1.5,1.5,0,0,1,1.5,1.5V58.06A1.5,1.5,0,0,1,42.48,59.56ZM22,56.56H41V23.93H22Z"/><polygon class="cls-5" points="42.48 42.25 20.49 49.25 20.49 38.17 42.48 31.17 42.48 42.25"/><path class="cls-2" d="M20.49,50.75a1.55,1.55,0,0,1-.89-.29A1.51,1.51,0,0,1,19,49.25V38.17A1.49,1.49,0,0,1,20,36.74l22-7a1.46,1.46,0,0,1,1.34.22A1.48,1.48,0,0,1,44,31.17V42.25a1.5,1.5,0,0,1-1,1.43l-22,7A1.83,1.83,0,0,1,20.49,50.75ZM22,39.26V47.2l19-6.05V33.22Zm20.49,3h0Z"/><rect class="cls-6" x="35.48" y="22.43" width="7" height="35.64"/><path class="cls-1" d="M39.38,14.54a7.9,7.9,0,0,1-15.79,0c0-4.36,7.9-13.06,7.9-13.06S39.38,10.18,39.38,14.54Z"/><path class="cls-2" d="M31.49,23.93a9.41,9.41,0,0,1-9.4-9.39c0-4.81,7.44-13.14,8.29-14.07a1.54,1.54,0,0,1,2.22,0c.85.93,8.28,9.26,8.28,14.07A9.4,9.4,0,0,1,31.49,23.93Zm0-20.17c-2.84,3.34-6.4,8.36-6.4,10.78a6.4,6.4,0,0,0,12.79,0C37.88,12.12,34.32,7.1,31.49,3.76Z"/><path class="cls-3" d="M31.49,1.48l-.39.44c2.08,2.8,4.28,6.31,4.28,8.62a7.89,7.89,0,0,1-7.89,7.89,7.8,7.8,0,0,1-3.21-.69,7.89,7.89,0,0,0,15.1-3.2C39.38,10.18,31.49,1.48,31.49,1.48Z"/><path class="cls-2" d="M62.58,59.42a8,8,0,1,1,8-8A8,8,0,0,1,62.58,59.42Zm0-12.93a5,5,0,1,0,5,5A5,5,0,0,0,62.58,46.49Z"/></g></g></svg>