<svg xmlns="http://www.w3.org/2000/svg" viewBox="0 0 60.22 72.01"><defs><style>.cls-1{fill:#bc8543;}.cls-2{fill:#373434;}.cls-3{fill:#373433;}.cls-4{fill:#fbeccd;}.cls-5{fill:#12100b;opacity:0.2;}</style></defs><g id="Réteg_2" data-name="Réteg 2"><g id="Layer_2" data-name="Layer 2"><path class="cls-1" d="M19.1,32.91V43.83h0L10.58,62.61A5.56,5.56,0,0,0,13.31,70h0a5.57,5.57,0,0,0,7.39-2.73l9.41-17.45h0l9.42,17.46A5.58,5.58,0,0,0,46.92,70h0a5.57,5.57,0,0,0,2.73-7.39L41.12,43.83h0V32.91h12a5.58,5.58,0,0,0,5.57-5.57h0a5.58,5.58,0,0,0-5.57-5.57H36.07a11,11,0,1,0-12.31-.26l.32.26h-17A5.59,5.59,0,0,0,1.5,27.34h0a5.59,5.59,0,0,0,5.57,5.57Z"/><path class="cls-2" d="M44.6,72a7.06,7.06,0,0,1-6.43-4.11L30.11,53,22,68A7.07,7.07,0,0,1,9.21,62L17.6,43.5V34.41H7.07a7.07,7.07,0,0,1,0-14.14H20.3a12.51,12.51,0,1,1,19.63,0H53.15a7.07,7.07,0,1,1,0,14.14H42.62V43.5L51,62A7.06,7.06,0,0,1,44.6,72ZM31.46,49.16l9.39,17.4a4.1,4.1,0,0,0,5.44,2.08,4.06,4.06,0,0,0,2-5.39l-8.54-18.8a1.68,1.68,0,0,1-.13-.62V32.91a1.5,1.5,0,0,1,1.5-1.5h12a4.07,4.07,0,1,0,0-8.14h-17a1.54,1.54,0,0,1-.9-.25,1.49,1.49,0,0,1,.09-2.55,9.52,9.52,0,1,0-10.7-.19.27.27,0,0,1,.08.07l.32.26a1.5,1.5,0,0,1-1,2.66h-17a4.07,4.07,0,1,0,0,8.14h12a1.5,1.5,0,0,1,1.5,1.5V43.83a1.68,1.68,0,0,1-.13.62L11.94,63.23a4.07,4.07,0,1,0,7.39,3.4l9.4-17.41a1.48,1.48,0,0,1,.3-.45,1.49,1.49,0,0,1,1.75-.3A1.47,1.47,0,0,1,31.46,49.16Z"/><circle class="cls-3" cx="26.47" cy="11.78" r="2.38"/><circle class="cls-3" cx="33.83" cy="11.78" r="2.38"/><circle class="cls-3" cx="29.87" cy="28.81" r="2.38"/><circle class="cls-3" cx="29.87" cy="37.45" r="2.38"/><path class="cls-4" d="M21.6,65.3l-9.8-5.4h0l-1.22,2.71A5.57,5.57,0,0,0,20.7,67.26l.94-1.75Z"/><path class="cls-2" d="M15.64,72A7,7,0,0,1,9,67.39,7,7,0,0,1,9.21,62l1.23-2.7a1.47,1.47,0,0,1,.89-.8,1.52,1.52,0,0,1,1.2.11L22.32,64a1.52,1.52,0,0,1,.75,1l0,.21a1.45,1.45,0,0,1-.15,1L22,68A7,7,0,0,1,15.64,72ZM12.5,62l-.56,1.23a4.07,4.07,0,0,0-.12,3.12,4,4,0,0,0,2.12,2.28,4.07,4.07,0,0,0,5.39-2l.36-.67Z"/><path class="cls-4" d="M48.42,59.91,38.63,65.3l0,.22.94,1.75a5.57,5.57,0,1,0,10.12-4.65Z"/><path class="cls-2" d="M44.6,72a7.06,7.06,0,0,1-6.43-4.11l-.9-1.67a1.48,1.48,0,0,1-.16-1l0-.23a1.52,1.52,0,0,1,.75-1l9.79-5.39a1.5,1.5,0,0,1,2.09.7L51,62A7.06,7.06,0,0,1,44.6,72ZM40.53,66l.32.6a4.1,4.1,0,0,0,5.44,2.08,4.06,4.06,0,0,0,2-5.39L47.72,62Z"/><path class="cls-4" d="M1.5,27.34a5.59,5.59,0,0,0,5.57,5.57h3.5l.15-.76v-9.9l-.08-.48H7.07A5.59,5.59,0,0,0,1.5,27.34Z"/><path class="cls-2" d="M10.57,34.41H7.07a7.07,7.07,0,0,1,0-14.14h3.57a1.5,1.5,0,0,1,1.48,1.24l.08.48a2.28,2.28,0,0,1,0,.26v9.9a1.33,1.33,0,0,1,0,.28l-.15.76A1.49,1.49,0,0,1,10.57,34.41ZM7.07,23.27a4.07,4.07,0,1,0,0,8.14H9.22V23.27Z"/><path class="cls-4" d="M58.72,27.34a5.58,5.58,0,0,0-5.57-5.57H50l-.47.48v9.9l.94.76h2.71A5.58,5.58,0,0,0,58.72,27.34Z"/><path class="cls-2" d="M53.15,34.41H50.43a1.47,1.47,0,0,1-.94-.34l-.94-.76A1.5,1.5,0,0,1,48,32.15v-9.9a1.53,1.53,0,0,1,.43-1.06l.48-.48A1.5,1.5,0,0,1,50,20.27h3.18a7.07,7.07,0,1,1,0,14.14Zm-2.15-3h2.15a4.07,4.07,0,1,0,0-8.14H51Z"/><path class="cls-5" d="M41.12,43.83V32.91h12a5.57,5.57,0,1,0,0-11.14H36.07l.33-.24h0a10.67,10.67,0,0,0,1.94-1.73h0a9.86,9.86,0,0,0,.8-1l0-.07c.22-.33.43-.67.62-1l.11-.22a9.53,9.53,0,0,0,.44-1c.06-.13.09-.27.14-.41a8.39,8.39,0,0,0,.27-.85c.06-.23.1-.47.14-.7s.09-.42.12-.64a10.74,10.74,0,0,0,.09-1.4,11,11,0,0,0-11-11c-.32,0-.64,0-1,.05l-.39,0-.48.07c-.4.07-.79.16-1.17.26h0a11,11,0,0,1,3,19.85s5,1.41,5,11.14V43.83l8.53,18.79a5.55,5.55,0,0,1-2.06,7h0a5.6,5.6,0,0,0,1.21.58l.06,0c.19.06.37.11.56.15l.11,0a4.07,4.07,0,0,0,.61.08h0c.22,0,.44,0,.66,0h.11l.52-.06.19,0,.46-.11.19-.06a5.19,5.19,0,0,0,.62-.23,5.57,5.57,0,0,0,2.73-7.39Z"/></g></g></svg>