<svg xmlns="http://www.w3.org/2000/svg" viewBox="0 0 65.49 70.96"><defs><style>.cls-1{fill:#91bc22;}.cls-2{fill:#373333;}.cls-3{fill:#e62928;}.cls-4{fill:#373434;}.cls-5{opacity:0.15;}.cls-6{fill:#12100b;}</style></defs><g id="Réteg_2" data-name="Réteg 2"><g id="Layer_2" data-name="Layer 2"><path class="cls-1" d="M32.62,8.2A29.85,29.85,0,1,0,62.46,38,29.84,29.84,0,0,0,32.62,8.2Zm0,45.63A15.79,15.79,0,1,1,48.4,38,15.79,15.79,0,0,1,32.62,53.83Z"/><path class="cls-2" d="M32.62,69.39A31.35,31.35,0,1,1,64,38,31.38,31.38,0,0,1,32.62,69.39Zm0-59.69A28.35,28.35,0,1,0,61,38,28.38,28.38,0,0,0,32.62,9.7Zm0,45.63A17.29,17.29,0,1,1,49.9,38,17.3,17.3,0,0,1,32.62,55.33Zm0-31.57A14.29,14.29,0,1,0,46.9,38,14.3,14.3,0,0,0,32.62,23.76Z"/><path class="cls-3" d="M41.33,68.4,38.09,51.6a19.13,19.13,0,0,1-11,0L23.9,68.4a36.36,36.36,0,0,0,17.43,0Z"/><path class="cls-4" d="M32.62,71a37.62,37.62,0,0,1-9.08-1.11,1.49,1.49,0,0,1-1.11-1.74l3.24-16.8a1.48,1.48,0,0,1,.69-1,1.51,1.51,0,0,1,1.21-.16,17.72,17.72,0,0,0,10.1,0,1.51,1.51,0,0,1,1.9,1.15l3.23,16.8a1.48,1.48,0,0,1-1.11,1.74A37.6,37.6,0,0,1,32.62,71Zm-7-3.71a34.76,34.76,0,0,0,13.93,0L36.92,53.44a20.48,20.48,0,0,1-8.61,0Z"/><path class="cls-3" d="M2.56,30.6l16.8,3.24a19.17,19.17,0,0,0,0,11L2.56,48a36.36,36.36,0,0,1,0-17.43Z"/><path class="cls-4" d="M2.56,49.53a1.5,1.5,0,0,1-1.45-1.14,37.65,37.65,0,0,1,0-18.15,1.5,1.5,0,0,1,1.74-1.11l16.8,3.24a1.5,1.5,0,0,1,1.15,1.9,17.6,17.6,0,0,0,0,10.1,1.51,1.51,0,0,1-1.15,1.9L2.85,49.51A1.42,1.42,0,0,1,2.56,49.53ZM3.71,32.35a34.57,34.57,0,0,0,0,13.94l13.81-2.67a20.37,20.37,0,0,1,0-8.61Z"/><path class="cls-3" d="M62.93,30.6l-16.8,3.24a19.17,19.17,0,0,1,0,11L62.93,48a36.36,36.36,0,0,0,0-17.43Z"/><path class="cls-4" d="M62.93,49.53a1.42,1.42,0,0,1-.29,0l-16.8-3.24a1.51,1.51,0,0,1-1.15-1.9,17.6,17.6,0,0,0,0-10.1,1.5,1.5,0,0,1,1.15-1.9l16.8-3.24a1.5,1.5,0,0,1,1.74,1.11,37.65,37.65,0,0,1,0,18.15A1.49,1.49,0,0,1,62.93,49.53ZM48,43.62l13.81,2.67a35.05,35.05,0,0,0,0-13.94L48,35a20.82,20.82,0,0,1,0,8.61Z"/><g class="cls-5"><path class="cls-6" d="M19.87,45.79A15.77,15.77,0,0,1,41.36,24.3,15.78,15.78,0,1,0,19.87,45.79Z"/><path class="cls-6" d="M50.5,14.16A29.84,29.84,0,0,1,8.73,55.93,29.84,29.84,0,1,0,50.5,14.16Z"/></g><polyline class="cls-3" points="32.62 14.19 37.79 34.73 41.71 29.31 49.2 30.78 37.79 14.26"/><path class="cls-4" d="M37.79,36.24l-.28,0a1.49,1.49,0,0,1-1.17-1.11L31.16,14.56a1.51,1.51,0,0,1,1.09-1.82,1.49,1.49,0,0,1,1.82,1.09l4.39,17.42,2-2.82A1.49,1.49,0,0,1,42,27.84l3.87.76L36.56,15.11A1.5,1.5,0,1,1,39,13.4L50.44,29.92a1.53,1.53,0,0,1,0,1.68,1.5,1.5,0,0,1-1.54.65L42.36,31,39,35.61A1.5,1.5,0,0,1,37.79,36.24Z"/><polyline class="cls-3" points="32.62 14.19 27.44 34.73 23.52 29.31 16.03 30.78 27.44 14.26"/><path class="cls-4" d="M27.44,36.24a1.5,1.5,0,0,1-1.22-.63L22.87,31l-6.55,1.29a1.51,1.51,0,0,1-1.55-.65,1.53,1.53,0,0,1,0-1.68L26.2,13.4a1.5,1.5,0,0,1,2.47,1.71L19.36,28.6l3.87-.76a1.48,1.48,0,0,1,1.51.59l2,2.82,4.39-17.42a1.5,1.5,0,1,1,2.91.73L28.89,35.1a1.49,1.49,0,0,1-1.17,1.11A1.33,1.33,0,0,1,27.44,36.24Z"/><path class="cls-3" d="M32.62,14.19S21.21-4.44,11.08,3.45C4.64,8.45,5.51,12.26,7,14.37a4.22,4.22,0,0,0,3.78,1.71Z"/><path class="cls-4" d="M10.41,17.59a5.67,5.67,0,0,1-4.63-2.35c-1.63-2.31-3.23-7.06,4.38-13A9.91,9.91,0,0,1,18.3.17c8.34,1.52,15.3,12.76,15.59,13.24A1.46,1.46,0,0,1,34,14.87a1.51,1.51,0,0,1-1.21.82L10.91,17.57ZM16.43,3A7.06,7.06,0,0,0,12,4.63C7.7,8,6.43,11,8.23,13.5a2.68,2.68,0,0,0,2.42,1.08l19.28-1.66c-2.3-3.14-7.1-8.87-12.17-9.8A7.65,7.65,0,0,0,16.43,3Z"/><path class="cls-3" d="M32.62,14.19S44-4.44,54.15,3.45c6.44,5,5.57,8.81,4.08,10.92a4.22,4.22,0,0,1-3.78,1.71Z"/><path class="cls-4" d="M54.82,17.59l-.5,0L32.49,15.69a1.51,1.51,0,0,1-1.21-.82,1.46,1.46,0,0,1,.06-1.46c.29-.48,7.25-11.72,15.59-13.24a9.94,9.94,0,0,1,8.15,2.09c7.6,5.92,6,10.67,4.37,13A5.67,5.67,0,0,1,54.82,17.59ZM35.3,12.92l19.28,1.66A2.69,2.69,0,0,0,57,13.5C58.8,11,57.53,8,53.23,4.63a7,7,0,0,0-5.76-1.51C42.39,4.05,37.59,9.78,35.3,12.92Z"/><rect class="cls-3" x="27.68" y="7.85" width="10.12" height="6.41"/><path class="cls-4" d="M37.79,15.75H27.68a1.5,1.5,0,0,1-1.5-1.5V7.85a1.5,1.5,0,0,1,1.5-1.5H37.79a1.5,1.5,0,0,1,1.5,1.5v6.4A1.5,1.5,0,0,1,37.79,15.75Zm-8.61-3h7.11V9.35H29.18Z"/><path class="cls-3" d="M7.05,8.41a33.71,33.71,0,0,1,20.63,5.84"/><path class="cls-4" d="M27.68,15.75a1.56,1.56,0,0,1-.85-.25A32.51,32.51,0,0,0,7.21,9.9,1.52,1.52,0,0,1,5.56,8.57,1.5,1.5,0,0,1,6.89,6.92,35,35,0,0,1,28.52,13a1.5,1.5,0,0,1-.84,2.74Z"/><path class="cls-3" d="M58,8.45a34.87,34.87,0,0,0-21.21,5.8"/><path class="cls-4" d="M36.78,15.75A1.5,1.5,0,0,1,35.94,13,36.14,36.14,0,0,1,58.15,7a1.5,1.5,0,1,1-.31,3h0A33.62,33.62,0,0,0,37.63,15.5,1.56,1.56,0,0,1,36.78,15.75Z"/></g></g></svg>