<svg xmlns="http://www.w3.org/2000/svg" viewBox="0 0 40.29 69.42"><defs><style>.cls-1{opacity:0.2;}.cls-2{fill:#12100b;}</style></defs><g id="Réteg_2" data-name="Réteg 2"><g id="Layer_2" data-name="Layer 2"><g class="cls-1"><path class="cls-2" d="M13.13,10.06A11.11,11.11,0,0,0,2,21.16v3.2a5,5,0,0,1-2,4,5,5,0,0,0,3,1,5,5,0,0,0,5-5v-3.2a11.12,11.12,0,0,1,8.1-10.68A11,11,0,0,0,13.13,10.06Z"/><path class="cls-2" d="M19.13,0a21.18,21.18,0,0,0-3,.24A21.16,21.16,0,0,1,34.29,21.16V64.39a5,5,0,0,1-2,4,5,5,0,0,0,8-4V21.16A21.18,21.18,0,0,0,19.13,0Z"/></g></g></g></svg>