<svg xmlns="http://www.w3.org/2000/svg" viewBox="0 0 74.14 61.48"><defs><style>.cls-1{fill:#bc8543;}.cls-2,.cls-5{opacity:0.15;}.cls-3,.cls-5{fill:#12100b;}.cls-4{fill:#373434;}.cls-6{fill:#e62928;}</style></defs><g id="Réteg_2" data-name="Réteg 2"><g id="Layer_2" data-name="Layer 2"><path class="cls-1" d="M41.7,32.25s8.42.6,7.56-10.51a3.68,3.68,0,0,1,2.56-4l.1,0a3.78,3.78,0,0,1,4.34,3.18c.61,2.86,1,6.51-.38,8.28,0,0,7.38-9.68,6.64-21.78-.16-2.73,1.32-5.12,3.65-5.68l.18,0c3.21-.77,6.36,2.21,6.29,6-.18,10.21-6,27.21-21.92,33.13"/><g class="cls-2"><path class="cls-3" d="M66.35,1.62l-.18,0a4.32,4.32,0,0,0-1.8.94,6.24,6.24,0,0,1,2.27,5c-.16,9.3-5,24.21-17.89,31.28l2,1.85C66.59,34.78,72.46,17.78,72.64,7.57,72.71,3.83,69.56.85,66.35,1.62Z"/></g><path class="cls-4" d="M50.72,42.2a1.49,1.49,0,0,1-.52-2.9C65.25,33.68,71,17.23,71.14,7.54a4.7,4.7,0,0,0-1.7-3.76,3.15,3.15,0,0,0-2.74-.7l-.18,0C65,3.5,63.9,5.23,64,7.25c.73,12-6,21.48-6.86,22.67l-.09.12a1.5,1.5,0,0,1-2.38-1.83.54.54,0,0,1,.07-.09c.72-1.06.74-3.65,0-7a2.8,2.8,0,0,0-1.18-1.77,1.79,1.79,0,0,0-1.35-.26l-.1,0a2.21,2.21,0,0,0-1.41,2.47c.32,4.27-.58,7.52-2.7,9.65a8.89,8.89,0,0,1-6.47,2.47,1.5,1.5,0,0,1-1.39-1.6,1.52,1.52,0,0,1,1.6-1.39A5.88,5.88,0,0,0,46,29.13c1.45-1.49,2.06-3.94,1.8-7.27a5.2,5.2,0,0,1,3.71-5.63l.11,0a4.77,4.77,0,0,1,3.64.64,5.79,5.79,0,0,1,2.51,3.69c.13.6.23,1.18.32,1.74A32,32,0,0,0,61,7.43C60.81,4,62.83.92,65.82.21l.18,0a6.16,6.16,0,0,1,5.32,1.28A7.74,7.74,0,0,1,74.14,7.6c-.16,9-5.15,27.88-22.9,34.51A1.58,1.58,0,0,1,50.72,42.2Z"/><path class="cls-1" d="M32.44,32.25s-8.41.6-7.56-10.51a3.68,3.68,0,0,0-2.56-4l-.1,0a3.78,3.78,0,0,0-4.34,3.18c-.6,2.86-1,6.51.38,8.28,0,0-7.38-9.68-6.64-21.78C11.79,4.61,10.31,2.22,8,1.66l-.19,0c-3.2-.77-6.35,2.21-6.29,6C1.68,17.78,7.56,34.78,23.42,40.7"/><path class="cls-4" d="M23.42,42.2a1.58,1.58,0,0,1-.52-.09C5.16,35.48.16,16.64,0,7.6A7.74,7.74,0,0,1,2.82,1.44,6.16,6.16,0,0,1,8.14.16l.19,0c3,.71,5,3.75,4.79,7.22a31.88,31.88,0,0,0,3,14.85c.09-.56.19-1.14.32-1.75a5.81,5.81,0,0,1,2.51-3.69,4.78,4.78,0,0,1,3.65-.64l.1,0a5.18,5.18,0,0,1,3.71,5.63c-.26,3.33.35,5.78,1.81,7.27a5.91,5.91,0,0,0,4.16,1.62,1.5,1.5,0,0,1,.2,3,8.9,8.9,0,0,1-6.47-2.47c-2.11-2.13-3-5.38-2.69-9.64A2.25,2.25,0,0,0,22,19.14l-.1,0a1.79,1.79,0,0,0-1.35.26,2.78,2.78,0,0,0-1.17,1.77c-.71,3.33-.69,5.92,0,7,0,.06.06.08.06.09A1.5,1.5,0,0,1,17.07,30L17,29.92c-.87-1.19-7.59-10.72-6.86-22.68A3.78,3.78,0,0,0,7.63,3.12l-.19,0a3.15,3.15,0,0,0-2.74.7A4.7,4.7,0,0,0,3,7.54c.17,9.69,5.89,26.14,21,31.76a1.5,1.5,0,0,1-.53,2.9Z"/><path class="cls-5" d="M6.78,1.51A4.43,4.43,0,0,0,6,1.58H6a4.55,4.55,0,0,0-.8.23l-.09,0a5.16,5.16,0,0,0-.78.39h0a5.57,5.57,0,0,1,2.34,5.1c-.74,12.1,6.64,21.78,6.64,21.78s5.9,7,11.4,10.42l7.76-7.27v0c-.46,0-8.37.27-7.54-10.51a3.68,3.68,0,0,0-2.56-4l-.1,0a3.78,3.78,0,0,0-4.34,3.18c-.6,2.86-1,6.51.38,8.28,0,0-7.38-9.68-6.64-21.78C11.79,4.61,10.31,2.22,8,1.66l-.19,0A3.94,3.94,0,0,0,7,1.51Z"/><path class="cls-4" d="M23.42,42.2a1.58,1.58,0,0,1-.52-.09C5.16,35.48.16,16.64,0,7.6A7.74,7.74,0,0,1,2.82,1.44,6.16,6.16,0,0,1,8.14.16l.19,0c3,.71,5,3.75,4.79,7.22a31.88,31.88,0,0,0,3,14.85c.09-.56.19-1.14.32-1.75a5.81,5.81,0,0,1,2.51-3.69,4.78,4.78,0,0,1,3.65-.64l.1,0a5.18,5.18,0,0,1,3.71,5.63c-.26,3.33.35,5.78,1.81,7.27a5.91,5.91,0,0,0,4.16,1.62,1.5,1.5,0,0,1,.2,3,8.9,8.9,0,0,1-6.47-2.47c-2.11-2.13-3-5.38-2.69-9.64A2.25,2.25,0,0,0,22,19.14l-.1,0a1.79,1.79,0,0,0-1.35.26,2.78,2.78,0,0,0-1.17,1.77c-.71,3.33-.69,5.92,0,7,0,.06.06.08.06.09A1.5,1.5,0,0,1,17.07,30L17,29.92c-.87-1.19-7.59-10.72-6.86-22.68A3.78,3.78,0,0,0,7.63,3.12l-.19,0a3.15,3.15,0,0,0-2.74.7A4.7,4.7,0,0,0,3,7.54c.17,9.69,5.89,26.14,21,31.76a1.5,1.5,0,0,1-.53,2.9Z"/><path class="cls-6" d="M16.91,59.09a19.55,19.55,0,0,1,39-1.8c.06.63.09,1.25.09,1.87a.8.8,0,0,0,1.56.27,22.16,22.16,0,1,0-42.24,0,.8.8,0,0,0,1.57-.26Z"/><path class="cls-4" d="M56.83,61.48l-.36,0a2.29,2.29,0,0,1-1.95-2.29c0-.58,0-1.17-.08-1.73A18,18,0,0,0,24,46a17.86,17.86,0,0,0-5.61,13.07v.06a2.29,2.29,0,0,1-1.95,2.29,2.31,2.31,0,0,1-2.55-1.58,23.86,23.86,0,0,1-1.11-7.17A23.65,23.65,0,0,1,37.11,29a23.88,23.88,0,0,1,23,23.24A23.49,23.49,0,0,1,59,59.88,2.28,2.28,0,0,1,56.83,61.48ZM15.41,59.15ZM36.45,38c.36,0,.71,0,1.07,0A21.14,21.14,0,0,1,57,54.62a19.4,19.4,0,0,0,.08-2.29A20.86,20.86,0,0,0,37,32,20.66,20.66,0,0,0,15.8,52.69c0,.63,0,1.27.09,1.9A21.09,21.09,0,0,1,36.45,38Z"/><g class="cls-2"><path class="cls-3" d="M37.07,30.53a22.45,22.45,0,0,0-5.15.47A22.36,22.36,0,0,1,47.25,42.81a19.61,19.61,0,0,1,8.68,14.48c.06.63.09,1.25.09,1.87a.8.8,0,0,0,1.56.27,22.18,22.18,0,0,0-20.51-28.9Z"/></g><path class="cls-4" d="M56.83,61.48l-.36,0a2.29,2.29,0,0,1-1.95-2.29c0-.58,0-1.17-.08-1.73A18,18,0,0,0,24,46a17.86,17.86,0,0,0-5.61,13.07v.06a2.29,2.29,0,0,1-1.95,2.29,2.31,2.31,0,0,1-2.55-1.58,23.86,23.86,0,0,1-1.11-7.17A23.65,23.65,0,0,1,37.11,29a23.88,23.88,0,0,1,23,23.24A23.49,23.49,0,0,1,59,59.88,2.28,2.28,0,0,1,56.83,61.48ZM15.41,59.15ZM36.45,38c.36,0,.71,0,1.07,0A21.14,21.14,0,0,1,57,54.62a19.4,19.4,0,0,0,.08-2.29A20.86,20.86,0,0,0,37,32,20.66,20.66,0,0,0,15.8,52.69c0,.63,0,1.27.09,1.9A21.09,21.09,0,0,1,36.45,38Z"/></g></g></svg>