<svg xmlns="http://www.w3.org/2000/svg" viewBox="0 0 59.53 73.34"><defs><style>.cls-1{fill:#c5c2c2;}.cls-2{fill:#373434;}.cls-3{opacity:0.15;}.cls-4{fill:#12100b;}.cls-5{fill:#fbcd00;}.cls-6{fill:#e62928;}.cls-7{fill:#fff;}.cls-8{fill:#8f4316;opacity:0.3;}</style></defs><g id="Réteg_2" data-name="Réteg 2"><g id="Layer_2" data-name="Layer 2"><circle class="cls-1" cx="29.77" cy="8.93" r="7.43"/><path class="cls-2" d="M29.77,17.87A8.94,8.94,0,1,1,38.7,8.93,8.95,8.95,0,0,1,29.77,17.87ZM29.77,3A5.94,5.94,0,1,0,35.7,8.93,5.95,5.95,0,0,0,29.77,3Z"/><rect class="cls-1" x="19.67" y="8.43" width="20.2" height="8.32"/><path class="cls-2" d="M39.87,18.25H19.67a1.5,1.5,0,0,1-1.5-1.5V8.43a1.5,1.5,0,0,1,1.5-1.5h20.2a1.5,1.5,0,0,1,1.5,1.5v8.32A1.5,1.5,0,0,1,39.87,18.25Zm-18.7-3h17.2V9.93H21.17Z"/><g class="cls-3"><path class="cls-4" d="M37.18,8.43A7.43,7.43,0,0,0,29.77,1.5a7.3,7.3,0,0,0-3,.64,7.43,7.43,0,0,1,4.41,6.29h2.69v8.32h6V8.43Z"/></g><path class="cls-2" d="M39.87,18.25H19.67a1.5,1.5,0,0,1-1.5-1.5V8.43a1.5,1.5,0,0,1,1.5-1.5h20.2a1.5,1.5,0,0,1,1.5,1.5v8.32A1.5,1.5,0,0,1,39.87,18.25Zm-18.7-3h17.2V9.93H21.17Z"/><path class="cls-2" d="M37.18,9.93H22.36a1.49,1.49,0,0,1-1.5-1.6,8.92,8.92,0,0,1,17.81,0,1.52,1.52,0,0,1-.4,1.13A1.5,1.5,0,0,1,37.18,9.93Zm-13-3H35.34a5.92,5.92,0,0,0-11.15,0Z"/><circle class="cls-5" cx="29.77" cy="43.57" r="28.27"/><path class="cls-2" d="M29.77,73.34A29.77,29.77,0,1,1,59.53,43.57,29.8,29.8,0,0,1,29.77,73.34Zm0-56.54A26.77,26.77,0,1,0,56.53,43.57,26.8,26.8,0,0,0,29.77,16.8Z"/><path class="cls-6" d="M1.5,43.57a28.5,28.5,0,0,0,1.09,7.78H56.94a28.31,28.31,0,0,0,0-15.56H2.59A28.5,28.5,0,0,0,1.5,43.57Z"/><path class="cls-2" d="M56.94,52.85H2.59a1.5,1.5,0,0,1-1.44-1.09,29.74,29.74,0,0,1,0-16.38,1.5,1.5,0,0,1,1.44-1.09H56.94a1.49,1.49,0,0,1,1.44,1.09,29.74,29.74,0,0,1,0,16.38A1.49,1.49,0,0,1,56.94,52.85Zm-53.19-3h52a27,27,0,0,0,0-12.56h-52a26.67,26.67,0,0,0,0,12.56Z"/><circle class="cls-7" cx="29.78" cy="43.55" r="3.89"/><path class="cls-2" d="M29.79,48.94a5.39,5.39,0,1,1,5.38-5.39A5.39,5.39,0,0,1,29.79,48.94Zm0-7.77a2.39,2.39,0,1,0,2.38,2.38A2.39,2.39,0,0,0,29.79,41.17Z"/><circle class="cls-7" cx="12.78" cy="43.55" r="3.89"/><path class="cls-2" d="M12.79,48.94a5.39,5.39,0,1,1,5.38-5.39A5.39,5.39,0,0,1,12.79,48.94Zm0-7.77a2.39,2.39,0,1,0,2.38,2.38A2.39,2.39,0,0,0,12.79,41.17Z"/><path class="cls-8" d="M46.53,20.81A28.26,28.26,0,0,1,7,60.33,28.26,28.26,0,1,0,46.53,20.81Z"/><path class="cls-2" d="M29.77,73.34A29.77,29.77,0,1,1,59.53,43.57,29.8,29.8,0,0,1,29.77,73.34Zm0-56.54A26.77,26.77,0,1,0,56.53,43.57,26.8,26.8,0,0,0,29.77,16.8Z"/><path class="cls-2" d="M56.94,52.85H2.59a1.5,1.5,0,0,1-1.44-1.09,29.74,29.74,0,0,1,0-16.38,1.5,1.5,0,0,1,1.44-1.09H56.94a1.49,1.49,0,0,1,1.44,1.09,29.74,29.74,0,0,1,0,16.38A1.49,1.49,0,0,1,56.94,52.85Zm-53.19-3h52a27,27,0,0,0,0-12.56h-52a26.67,26.67,0,0,0,0,12.56Z"/><circle class="cls-7" cx="46.78" cy="43.55" r="3.89"/><path class="cls-2" d="M46.79,48.94a5.39,5.39,0,1,1,5.38-5.39A5.39,5.39,0,0,1,46.79,48.94Zm0-7.77a2.39,2.39,0,1,0,2.38,2.38A2.39,2.39,0,0,0,46.79,41.17Z"/></g></g></svg>