<svg xmlns="http://www.w3.org/2000/svg" viewBox="0 0 67.11 66.02"><defs><style>.cls-1{fill:#e62928;}.cls-2{fill:#373434;}.cls-3,.cls-5{fill:#12100b;}.cls-3{opacity:0.15;}.cls-4{fill:#fbcd00;}.cls-5{opacity:0.3;}</style></defs><g id="Réteg_2" data-name="Réteg 2"><g id="Layer_2" data-name="Layer 2"><path class="cls-1" d="M5.7,27.43H61.41a0,0,0,0,1,0,0V63.08A1.44,1.44,0,0,1,60,64.52H7.14A1.44,1.44,0,0,1,5.7,63.08V27.43A0,0,0,0,1,5.7,27.43Z"/><path class="cls-2" d="M60,66H7.14A2.94,2.94,0,0,1,4.2,63.08V27.43a1.5,1.5,0,0,1,1.5-1.5H61.41a1.5,1.5,0,0,1,1.5,1.5V63.08A2.94,2.94,0,0,1,60,66ZM7.2,28.93V63.08L59.91,63V28.93Z"/><rect class="cls-1" x="1.5" y="14.05" width="64.11" height="13.37" rx="1.44"/><path class="cls-2" d="M64.17,28.93H2.94A2.94,2.94,0,0,1,0,26V15.49a2.94,2.94,0,0,1,2.94-2.94H64.17a2.94,2.94,0,0,1,2.94,2.94V26A2.94,2.94,0,0,1,64.17,28.93ZM2.94,15.55,3,26l61.17-.06-.06-10.38Zm61.23,0h0Z"/><path class="cls-3" d="M64.17,14.05h-8a1.43,1.43,0,0,1,1.44,1.44V26a1.44,1.44,0,0,1-1.44,1.44h8A1.44,1.44,0,0,0,65.61,26V15.49A1.43,1.43,0,0,0,64.17,14.05Z"/><rect class="cls-4" x="24.63" y="14.05" width="17.86" height="13.37"/><path class="cls-2" d="M42.49,28.93H24.63a1.5,1.5,0,0,1-1.5-1.5V14.05a1.5,1.5,0,0,1,1.5-1.5H42.49a1.5,1.5,0,0,1,1.5,1.5V27.43A1.5,1.5,0,0,1,42.49,28.93Zm-16.36-3H41V15.55H26.13Z"/><rect class="cls-4" x="26.79" y="27.43" width="13.53" height="37.09"/><path class="cls-2" d="M40.32,66H26.79a1.5,1.5,0,0,1-1.5-1.5V27.43a1.5,1.5,0,0,1,1.5-1.5H40.32a1.5,1.5,0,0,1,1.5,1.5V64.52A1.5,1.5,0,0,1,40.32,66Zm-12-3H38.82V28.93H28.29Z"/><path class="cls-4" d="M33.56,14.05S22.28-4.37,12.26,3.42s-2.13,10.63-2.13,10.63Z"/><path class="cls-2" d="M33.56,15.55H10.13a1.43,1.43,0,0,1-.5-.09c-.14-.05-3.4-1.25-3.89-4.32-.44-2.72,1.39-5.63,5.6-8.9A9.85,9.85,0,0,1,19.4.17c8.25,1.5,15.15,12.62,15.44,13.1a1.5,1.5,0,0,1-1.28,2.28Zm-23.12-3H30.7C28.37,9.4,23.74,4,18.86,3.12a6.84,6.84,0,0,0-5.68,1.49C10.1,7,8.47,9.21,8.7,10.67,8.86,11.7,10,12.33,10.44,12.55Z"/><path class="cls-4" d="M33.56,14.05S44.83-4.37,54.86,3.42,57,14.05,57,14.05Z"/><path class="cls-2" d="M57,15.55H33.56a1.48,1.48,0,0,1-1.31-.77,1.46,1.46,0,0,1,0-1.51c.29-.48,7.18-11.6,15.43-13.1a9.84,9.84,0,0,1,8.07,2.07c4.2,3.27,6,6.18,5.6,8.9-.49,3.07-3.75,4.27-3.89,4.32A1.48,1.48,0,0,1,57,15.55Zm-20.57-3H56.67c.46-.22,1.59-.86,1.75-1.89C58.64,9.2,57,7,53.94,4.61a6.86,6.86,0,0,0-5.69-1.49C43.37,4,38.75,9.4,36.41,12.55Z"/><rect class="cls-4" x="28.67" y="7.78" width="10" height="6.34"/><path class="cls-2" d="M38.68,15.61h-10a1.5,1.5,0,0,1-1.5-1.5V7.78a1.5,1.5,0,0,1,1.5-1.5h10a1.5,1.5,0,0,1,1.5,1.5v6.33A1.5,1.5,0,0,1,38.68,15.61Zm-8.51-3h7V9.28h-7Z"/><path class="cls-4" d="M7.7,8.37a34.51,34.51,0,0,1,21,5.74"/><path class="cls-2" d="M28.67,15.61a1.46,1.46,0,0,1-.84-.26,33.21,33.21,0,0,0-20-5.48,1.5,1.5,0,0,1-.31-3,35.75,35.75,0,0,1,22,6,1.5,1.5,0,0,1-.85,2.74Z"/><path class="cls-4" d="M58.65,8.37a34.52,34.52,0,0,0-21,5.74"/><path class="cls-2" d="M37.68,15.61a1.5,1.5,0,0,1-.85-2.74,35.75,35.75,0,0,1,22-6,1.5,1.5,0,0,1-.31,3,33.25,33.25,0,0,0-20,5.48A1.46,1.46,0,0,1,37.68,15.61Z"/><path class="cls-4" d="M10.13,14.05H28.58A34.54,34.54,0,0,0,7.7,8.37C5.69,12.46,10.13,14.05,10.13,14.05Z"/><path class="cls-2" d="M28.58,15.55H10.13a1.43,1.43,0,0,1-.5-.09A6.38,6.38,0,0,1,6,12.16a5.29,5.29,0,0,1,.33-4.45,1.51,1.51,0,0,1,1.2-.83,35.85,35.85,0,0,1,21.87,5.93,1.5,1.5,0,0,1-.84,2.74Zm-18.15-3H22.7A33.9,33.9,0,0,0,8.75,9.82,2,2,0,0,0,8.8,11,3.32,3.32,0,0,0,10.43,12.55Z"/><path class="cls-4" d="M37.77,14.05H57s4.4-1.58,2.46-5.62l-.79-.06A34.54,34.54,0,0,0,37.77,14.05Z"/><path class="cls-2" d="M57,15.55H37.77a1.5,1.5,0,0,1-.84-2.74A35.76,35.76,0,0,1,58.81,6.88l.74,0a1.5,1.5,0,0,1,1.24.85,5.28,5.28,0,0,1,.29,4.41,6.42,6.42,0,0,1-3.59,3.27A1.48,1.48,0,0,1,57,15.55Zm-13.33-3h13A3.36,3.36,0,0,0,58.31,11a1.92,1.92,0,0,0,.06-1.17A33.68,33.68,0,0,0,43.65,12.55Z"/><path class="cls-3" d="M7.7,8.37a34.51,34.51,0,0,1,21,5.74"/><path class="cls-3" d="M58.65,8.37a34.52,34.52,0,0,0-21,5.74"/><path class="cls-5" d="M10.13,14.05H28.58A34.54,34.54,0,0,0,7.7,8.37C5.69,12.46,10.13,14.05,10.13,14.05Z"/><path class="cls-5" d="M37.77,14.05H57s4.4-1.58,2.46-5.62l-.79-.06A34.54,34.54,0,0,0,37.77,14.05Z"/><path class="cls-3" d="M52.57,37.75c.22,4.56.16,18,.08,26.77H60a1.44,1.44,0,0,0,1.44-1.44V27.43H26.79S52.24,30.8,52.57,37.75Z"/></g></g></svg>