<svg xmlns="http://www.w3.org/2000/svg" viewBox="0 0 49.63 73.27"><defs><style>.cls-1{fill:#fff;}.cls-2{fill:#373434;}.cls-3{fill:#e62928;}.cls-4{fill:#12100b;opacity:0.15;}</style></defs><g id="Réteg_2" data-name="Réteg 2"><g id="Layer_2" data-name="Layer 2"><rect class="cls-1" x="14.01" y="11.46" width="34.12" height="10.69" rx="1.62"/><path class="cls-2" d="M46.51,23.65H15.63a3.12,3.12,0,0,1-3.12-3.12V13.08A3.12,3.12,0,0,1,15.63,10H46.51a3.12,3.12,0,0,1,3.12,3.12v7.45A3.12,3.12,0,0,1,46.51,23.65ZM15.63,13a.12.12,0,0,0-.12.12v7.45a.12.12,0,0,0,.12.12H46.51a.13.13,0,0,0,.12-.12V13.08a.12.12,0,0,0-.12-.12Z"/><path class="cls-3" d="M45.49,22.15H16.64V39L7.83,45.34C1.38,50-.54,59,4,65.52a14.41,14.41,0,0,0,20.28,3.54l18.6-13.33a6.34,6.34,0,0,0,2.64-5.15Z"/><path class="cls-2" d="M15.89,73.27A16.4,16.4,0,0,1,13.11,73,15.83,15.83,0,0,1,2.73,66.38C-2.16,59.28-.26,49.3,7,44.12l8.18-5.87V22.15a1.5,1.5,0,0,1,1.5-1.5H45.49a1.5,1.5,0,0,1,1.5,1.5V50.58A7.85,7.85,0,0,1,43.72,57L25.13,70.28A15.77,15.77,0,0,1,15.89,73.27Zm2.25-49.62V39a1.49,1.49,0,0,1-.63,1.22l-8.8,6.32A13.23,13.23,0,0,0,5.2,64.67a12.93,12.93,0,0,0,18.18,3.17L42,54.51a4.84,4.84,0,0,0,2-3.93V23.65Z"/><path class="cls-1" d="M35.87,55.85a14.56,14.56,0,0,0,.67,4.4l6.31-4.52a6.34,6.34,0,0,0,2.64-5.15V42.05A14.72,14.72,0,0,0,35.87,55.85Z"/><path class="cls-2" d="M36.54,61.75a1.34,1.34,0,0,1-.48-.08,1.46,1.46,0,0,1-1-1A16.21,16.21,0,0,1,45,40.65a1.49,1.49,0,0,1,2,1.4v8.53A7.85,7.85,0,0,1,43.72,57l-6.31,4.52A1.46,1.46,0,0,1,36.54,61.75ZM44,44.41a13.27,13.27,0,0,0-6.62,11.44,13,13,0,0,0,.13,1.87L42,54.51a4.84,4.84,0,0,0,2-3.93Z"/><path class="cls-4" d="M46.1,11.46H38.51a1.62,1.62,0,0,1,1.62,1.62v7.45a1.63,1.63,0,0,1-1.62,1.62h-1V50.58a6.34,6.34,0,0,1-2.64,5.15L16.25,69.06a14.23,14.23,0,0,1-4.63,2.19,14.4,14.4,0,0,0,12.23-2.19L42.44,55.73a6.35,6.35,0,0,0,2.65-5.15V22.15h1a1.63,1.63,0,0,0,1.62-1.62V13.08A1.62,1.62,0,0,0,46.1,11.46Z"/><path class="cls-1" d="M3,51.23a14.28,14.28,0,0,0,16.86,20c.05-.55.09-1.11.09-1.67A18.36,18.36,0,0,0,3,51.23Z"/><path class="cls-2" d="M15.83,73.25A15.75,15.75,0,0,1,1.59,50.59a1.48,1.48,0,0,1,1.48-.86A20,20,0,0,1,21.4,69.53c0,.54,0,1.11-.09,1.8a1.51,1.51,0,0,1-1.08,1.31A16.27,16.27,0,0,1,15.83,73.25ZM3.89,52.84A12.7,12.7,0,0,0,5.2,64.67,12.93,12.93,0,0,0,18.39,70c0-.16,0-.32,0-.47A16.94,16.94,0,0,0,3.89,52.84Z"/><path class="cls-2" d="M45.17,12.07a1.41,1.41,0,0,1-.45-.07,1.5,1.5,0,0,1-1-1.88,18.48,18.48,0,0,0,.91-4.5,2.62,2.62,0,1,0-5.24,0,18.39,18.39,0,0,0,.88,4.4,1.5,1.5,0,0,1-2.87.89,21,21,0,0,1-1-5.29,5.62,5.62,0,1,1,11.24,0,20.86,20.86,0,0,1-1,5.41A1.49,1.49,0,0,1,45.17,12.07Z"/><path class="cls-2" d="M46.51,23.65H15.63a3.12,3.12,0,0,1-3.12-3.12V13.08A3.12,3.12,0,0,1,15.63,10H46.51a3.12,3.12,0,0,1,3.12,3.12v7.45A3.12,3.12,0,0,1,46.51,23.65ZM15.63,13a.12.12,0,0,0-.12.12v7.45a.12.12,0,0,0,.12.12H46.51a.13.13,0,0,0,.12-.12V13.08a.12.12,0,0,0-.12-.12Z"/><path class="cls-2" d="M15.89,73.27A16.4,16.4,0,0,1,13.11,73,15.83,15.83,0,0,1,2.73,66.38C-2.16,59.28-.26,49.3,7,44.12l8.18-5.87V22.15a1.5,1.5,0,0,1,1.5-1.5H45.49a1.5,1.5,0,0,1,1.5,1.5V50.58A7.85,7.85,0,0,1,43.72,57L25.13,70.28A15.77,15.77,0,0,1,15.89,73.27Zm2.25-49.62V39a1.49,1.49,0,0,1-.63,1.22l-8.8,6.32A13.23,13.23,0,0,0,5.2,64.67a12.93,12.93,0,0,0,18.18,3.17L42,54.51a4.84,4.84,0,0,0,2-3.93V23.65Z"/><path class="cls-2" d="M36.54,61.75a1.34,1.34,0,0,1-.48-.08,1.46,1.46,0,0,1-1-1A16.21,16.21,0,0,1,45,40.65a1.49,1.49,0,0,1,2,1.4v8.53A7.85,7.85,0,0,1,43.72,57l-6.31,4.52A1.46,1.46,0,0,1,36.54,61.75ZM44,44.41a13.27,13.27,0,0,0-6.62,11.44,13,13,0,0,0,.13,1.87L42,54.51a4.84,4.84,0,0,0,2-3.93Z"/><path class="cls-2" d="M15.83,73.25A15.75,15.75,0,0,1,1.59,50.59a1.48,1.48,0,0,1,1.48-.86A20,20,0,0,1,21.4,69.53c0,.54,0,1.11-.09,1.8a1.51,1.51,0,0,1-1.08,1.31A16.27,16.27,0,0,1,15.83,73.25ZM3.89,52.84A12.7,12.7,0,0,0,5.2,64.67,12.93,12.93,0,0,0,18.39,70c0-.16,0-.32,0-.47A16.94,16.94,0,0,0,3.89,52.84Z"/></g></g></svg>