<svg xmlns="http://www.w3.org/2000/svg" viewBox="0 0 61.49 71.35"><defs><style>.cls-1{fill:#fbcd00;}.cls-2{fill:#373434;}.cls-3{fill:#8f4316;opacity:0.3;}.cls-4{fill:#fff;}.cls-5{fill:#373433;}.cls-6{fill:#12100b;opacity:0.15;}</style></defs><g id="Réteg_2" data-name="Réteg 2"><g id="Layer_2" data-name="Layer 2"><path class="cls-1" d="M30.83,31.18a27.84,27.84,0,0,1-17.34-17c-5-13.67-23,13-2.2,41Z"/><path class="cls-2" d="M11.29,56.67h0a1.55,1.55,0,0,1-1.17-.61A49.23,49.23,0,0,1,.19,31.77c-.65-6.63.41-13,2.93-17.6C5,10.69,7.55,8.82,10,9c1.22.1,3.48.83,4.88,4.67A26.41,26.41,0,0,0,31.22,29.73a1.51,1.51,0,0,1,.77,2.4l-19.53,24A1.51,1.51,0,0,1,11.29,56.67ZM9.68,12C8.5,12,7,13.39,5.75,15.62,1.39,23.5,1.42,38.28,11.37,52.7l17-20.82A29.46,29.46,0,0,1,12.08,14.7c-.35-1-1.12-2.62-2.29-2.71Z"/><path class="cls-3" d="M13.49,14.18c-1.45-4-4-4.53-6.38-2.65.08.32.15.65.21,1A35.61,35.61,0,0,0,25.06,38.05l5.77-6.87A27.84,27.84,0,0,1,13.49,14.18Z"/><path class="cls-1" d="M30.66,31.18A27.83,27.83,0,0,0,48,14.18c5-13.67,23,13,2.2,41Z"/><path class="cls-2" d="M50.19,56.67A1.49,1.49,0,0,1,49,56.11l-19.53-24a1.5,1.5,0,0,1,.77-2.4h0A26.56,26.56,0,0,0,46.58,13.67C48,9.83,50.25,9.1,51.47,9c2.5-.19,5,1.7,6.9,5.17,2.51,4.55,3.58,11,2.93,17.6a49.32,49.32,0,0,1-9.9,24.29,1.55,1.55,0,0,1-1.17.61Zm-17-24.79,17,20.82c10-14.42,10-29.2,5.62-37.08-1.26-2.3-2.85-3.73-4-3.63s-1.94,1.74-2.3,2.71A29.45,29.45,0,0,1,33.16,31.88Z"/><path class="cls-3" d="M49.89,11.21c4.56,6.72,6.88,22.47-3.43,39.37l3.73,4.59C68.84,30.05,56.28,6,49.89,11.21Z"/><path class="cls-4" d="M38.65,26.36l-7.91,2-7.92-2C9,41.9,9.54,64.21,9.54,64.34c0,1.94,9.49,5.51,21.2,5.51S52,66.28,52,64.34C52,64.21,52.49,41.9,38.65,26.36Z"/><path class="cls-2" d="M30.74,71.35c-10.28,0-22.7-3.12-22.7-7C8,63.4,7.8,41,21.7,25.37a1.49,1.49,0,0,1,1.49-.46l7.55,1.91,7.54-1.91a1.49,1.49,0,0,1,1.49.46c13.9,15.6,13.69,38,13.68,39C53.45,68.23,41,71.35,30.74,71.35ZM11,64.09c1.17,1.32,9,4.26,19.7,4.26s18.54-2.93,19.71-4.26c0-2.55-.37-22-12.33-36.05l-7,1.78a1.5,1.5,0,0,1-.73,0l-7-1.78C11.33,42.14,11,61.72,11,64.09Zm39.41.22v0ZM11,64.28v0Z"/><circle class="cls-4" cx="30.74" cy="20.51" r="9.85"/><path class="cls-2" d="M30.74,31.86A11.35,11.35,0,1,1,42.1,20.51,11.36,11.36,0,0,1,30.74,31.86Zm0-19.7a8.35,8.35,0,1,0,8.36,8.35A8.36,8.36,0,0,0,30.74,12.16Z"/><circle class="cls-5" cx="27.24" cy="19.51" r="1.56"/><circle class="cls-5" cx="34.24" cy="19.51" r="1.56"/><circle class="cls-5" cx="30.66" cy="40.73" r="1.56"/><circle class="cls-5" cx="30.66" cy="47.73" r="1.56"/><circle class="cls-5" cx="30.66" cy="54.73" r="1.56"/><path class="cls-2" d="M31,7.9C28.26,7.9,19.39,7.61,19.39,4S28.26,0,31,0,42.56.29,42.56,4,33.69,7.9,31,7.9ZM23.21,4A26.11,26.11,0,0,0,31,4.9a26.08,26.08,0,0,0,7.76-1A26.08,26.08,0,0,0,31,3,26.11,26.11,0,0,0,23.21,4Zm16.51.48h0Z"/><path class="cls-6" d="M38.65,26.37a9.83,9.83,0,0,0-7.91-15.71,9.66,9.66,0,0,0-3,.47,9.84,9.84,0,0,1,6.86,9.38c0,2.2-.7,6.9-1.92,8.54C46.51,44.58,46,64.21,46,64.34c0,1.77-7.92,4.89-18.21,5.43,1,0,2,.08,3,.08C42.45,69.85,52,66.28,52,64.34,52,64.21,52.49,41.9,38.65,26.37Z"/><path class="cls-2" d="M30.74,31.86A11.35,11.35,0,1,1,42.1,20.51,11.36,11.36,0,0,1,30.74,31.86Zm0-19.7a8.35,8.35,0,1,0,8.36,8.35A8.36,8.36,0,0,0,30.74,12.16Z"/><path class="cls-2" d="M30.74,71.35c-10.28,0-22.7-3.12-22.7-7C8,63.4,7.8,41,21.7,25.37a1.48,1.48,0,0,1,1.51-.45,1.51,1.51,0,0,1,.83.55,8.33,8.33,0,0,0,13.41,0,1.51,1.51,0,0,1,1.14-.6,1.48,1.48,0,0,1,1.18.5c13.9,15.61,13.69,38,13.68,39C53.45,68.23,41,71.35,30.74,71.35ZM11,64.09c1.17,1.32,9,4.26,19.7,4.26s18.54-2.93,19.71-4.26c0-2.51-.36-21.45-11.81-35.43a11.34,11.34,0,0,1-15.8,0C11.33,42.7,11,61.76,11,64.09Zm39.41.22v0ZM11,64.28v0Z"/><path class="cls-2" d="M51,55.5a1.24,1.24,0,0,1-.33,0,1.5,1.5,0,0,1-1.15-1.21c-1.24-7.4-4.29-18-11.74-26.55a1.5,1.5,0,0,1-.36-1.13,1.54,1.54,0,0,1,.57-1,26.31,26.31,0,0,0,8.56-11.86C48,9.85,50.22,9.11,51.43,9c2.41-.2,4.89,1.59,6.79,4.91C60.74,18.3,61.88,24.54,61.36,31a48.45,48.45,0,0,1-9.1,23.84A1.52,1.52,0,0,1,51,55.5Zm-10-28.6c6.08,7.49,9.17,16.2,10.73,23.21,9.63-15.72,6.86-29.41,3.82-34.7-1.24-2.17-2.77-3.52-3.93-3.42-.85.08-1.69,1.06-2.29,2.71A29.24,29.24,0,0,1,41.07,26.9Z"/><path class="cls-2" d="M27.3,31.24a1.58,1.58,0,0,1-.52-.09,11.23,11.23,0,0,1-3.15-1.82,1.49,1.49,0,0,1-.27-2,1.51,1.51,0,0,1,2-.38A24.63,24.63,0,0,0,28,28.4a1.5,1.5,0,0,1-.68,2.84Z"/><path class="cls-2" d="M10.45,55.49a1.52,1.52,0,0,1-1.23-.63A48.45,48.45,0,0,1,.12,31c-.51-6.5.63-12.74,3.14-17.12,1.91-3.32,4.4-5.1,6.8-4.91,1.21.11,3.45.85,4.84,4.67a26.3,26.3,0,0,0,8.56,11.85,1.52,1.52,0,0,1,.2,2.17c-7.45,8.54-10.49,19.15-11.73,26.55a1.51,1.51,0,0,1-1.15,1.22ZM9.68,12c-1.13,0-2.61,1.32-3.81,3.41-3,5.3-5.82,19,3.81,34.7,1.56-7,4.65-15.72,10.73-23.21A29.37,29.37,0,0,1,12.08,14.7c-.6-1.65-1.43-2.63-2.28-2.71Z"/></g></g></svg>