<svg xmlns="http://www.w3.org/2000/svg" viewBox="0 0 74.98 69.71"><defs><style>.cls-1{fill:#91bc22;}.cls-2{fill:#7c9c3e;}.cls-3{fill:#373333;}.cls-4{fill:#e62928;}.cls-5{fill:#373434;}.cls-6{fill:#12100b;opacity:0.15;}</style></defs><g id="Réteg_2" data-name="Réteg 2"><g id="Layer_2" data-name="Layer 2"><path class="cls-1" d="M52.56,19.74c-8-1.34-6.7-11.25-6.7-11.25-7,0-8.37-7-8.37-7s-1.4,7-8.37,7c0,0,1.34,9.91-6.7,11.25,0,0,8,6.7,2.15,13.13,0,0,8.1,4.32,5.39,10.07,0,0,7.53,1.47,7.53,7.36,0-5.89,7.53-7.36,7.53-7.36-2.71-5.75,5.39-10.07,5.39-10.07C44.52,26.44,52.56,19.74,52.56,19.74Z"/><line class="cls-2" x1="37.49" y1="50.3" x2="37.49" y2="15.63"/><path class="cls-3" d="M37.49,51.8A1.5,1.5,0,0,1,36,50.3V15.63a1.5,1.5,0,0,1,3,0V50.3A1.5,1.5,0,0,1,37.49,51.8Z"/><path class="cls-1" d="M66.35,42.43c-3.24,7.47,5.81,11.74,5.81,11.74C68.38,60,73.48,65,73.48,65s-6.63-2.62-10.41,3.22c0,0-7.6-6.51-13.09-.49,0,0-1.26-10.39-9.86-8.93,0,0,.78-9.14-5.52-10,0,0,2.86-7.13-2.08-10.33,4.94,3.2,10.27-2.32,10.27-2.32,3.35,5.4,11.37.94,11.37.94C56.36,45.54,66.35,42.43,66.35,42.43Z"/><line class="cls-2" x1="32.52" y1="38.47" x2="61.62" y2="57.31"/><path class="cls-3" d="M61.62,58.81a1.5,1.5,0,0,1-.81-.24L31.7,39.73a1.5,1.5,0,1,1,1.63-2.52L62.44,56.05a1.51,1.51,0,0,1,.44,2.08A1.49,1.49,0,0,1,61.62,58.81Z"/><path class="cls-1" d="M8.63,42.43c3.24,7.47-5.81,11.74-5.81,11.74C6.61,60,1.5,65,1.5,65s6.63-2.62,10.41,3.22c0,0,7.6-6.51,13.09-.49,0,0,1.26-10.39,9.86-8.93,0,0-.78-9.14,5.52-10,0,0-2.86-7.13,2.09-10.33-4.95,3.2-10.28-2.32-10.28-2.32-3.35,5.4-11.37.94-11.37.94C18.62,45.54,8.63,42.43,8.63,42.43Z"/><path class="cls-3" d="M37.49,51.8A1.5,1.5,0,0,1,36,50.3c0-4.6-6.26-5.88-6.32-5.89a1.5,1.5,0,0,1-1.05-.8,1.47,1.47,0,0,1,0-1.31c2.08-4.41-4.67-8.07-4.74-8.1a1.51,1.51,0,0,1-.4-2.34,5.84,5.84,0,0,0,1.76-4.45c-.24-3.49-3.72-6.49-3.76-6.51a1.51,1.51,0,0,1,.72-2.64c6.53-1.08,5.5-9.22,5.46-9.57A1.51,1.51,0,0,1,28,7.5,1.5,1.5,0,0,1,29.12,7C34.8,7,36,1.44,36,1.21a1.5,1.5,0,0,1,2.94,0C39,1.44,40.24,7,45.86,7A1.5,1.5,0,0,1,47,7.5a1.51,1.51,0,0,1,.35,1.19c0,.34-1,8.49,5.46,9.57A1.49,1.49,0,0,1,54,19.35a1.47,1.47,0,0,1-.48,1.54h0s-3.53,3-3.76,6.53a5.82,5.82,0,0,0,1.76,4.44,1.51,1.51,0,0,1-.4,2.34c-.07,0-6.81,3.71-4.74,8.1a1.47,1.47,0,0,1,0,1.31,1.5,1.5,0,0,1-1,.8c-.25.05-6.32,1.32-6.32,5.89A1.5,1.5,0,0,1,37.49,51.8Zm-5.62-9.88a11.82,11.82,0,0,1,5.62,3.78,11.94,11.94,0,0,1,5.62-3.78c-.84-4.06,2.33-7.52,5.09-9.44a8.46,8.46,0,0,1-1.43-5.28,12.32,12.32,0,0,1,3-6.74c-4.47-2.05-5.6-7-5.53-10.59a9.56,9.56,0,0,1-6.76-4.52,9.56,9.56,0,0,1-6.76,4.52c.07,3.54-1.06,8.54-5.53,10.59a12.32,12.32,0,0,1,3,6.74,8.48,8.48,0,0,1-1.43,5.28C29.54,34.4,32.71,37.86,31.87,41.92Z"/><path class="cls-3" d="M63.07,69.71a1.48,1.48,0,0,1-1-.36c-.26-.22-6.57-5.48-11-.62a1.5,1.5,0,0,1-2.6-.83s-.6-4.59-3.44-6.69a5.8,5.8,0,0,0-4.68-.94,1.5,1.5,0,0,1-1.74-1.61c0-.07.57-7.73-4.23-8.38a1.5,1.5,0,0,1-1.19-2c.1-.24,2.33-6-1.51-8.51a1.5,1.5,0,1,1,1.63-2.52c3.87,2.51,8.34-2.05,8.38-2.1A1.51,1.51,0,0,1,43,34.66a1.47,1.47,0,0,1,1.11.7c2.56,4.11,9.31.46,9.38.42a1.51,1.51,0,0,1,1.31-.07,1.55,1.55,0,0,1,.87,1,5.81,5.81,0,0,0,2.77,3.89c3.08,1.72,7.48.41,7.52.39a1.5,1.5,0,0,1,1.82,2c-2.62,6,4.76,9.64,5.07,9.79a1.49,1.49,0,0,1,.8.95A1.46,1.46,0,0,1,73.42,55c-3.08,4.76.94,8.76,1.11,8.93a1.5,1.5,0,0,1-1.6,2.47c-.22-.08-5.55-2.07-8.6,2.65a1.52,1.52,0,0,1-1,.67Zm-7.55-6a13.49,13.49,0,0,1,7.26,2.45,9.41,9.41,0,0,1,7.47-3.23,9.54,9.54,0,0,1-.12-8.13c-3-1.87-6.59-5.53-5.89-10.39a12.27,12.27,0,0,1-7.3-1.14,8.33,8.33,0,0,1-3.64-4.07c-3.12,1.28-7.74,2.06-10.7-.85A11.85,11.85,0,0,1,36.38,41a11.94,11.94,0,0,1,.12,6.77c3.86,1.51,5,6,5.16,9.41a8.37,8.37,0,0,1,5.2,1.66,12.37,12.37,0,0,1,4,6.19A8.49,8.49,0,0,1,55.52,63.67Z"/><path class="cls-3" d="M11.91,69.71h-.22a1.56,1.56,0,0,1-1-.67C7.6,64.31,2.27,66.3,2,66.38A1.5,1.5,0,0,1,.45,63.91C.62,63.75,4.61,59.7,1.56,55a1.52,1.52,0,0,1-.18-1.23,1.5,1.5,0,0,1,.8-.94c.31-.15,7.69-3.75,5.07-9.79a1.5,1.5,0,0,1,1.82-2c.08,0,4.45,1.33,7.52-.39a5.81,5.81,0,0,0,2.77-3.89,1.51,1.51,0,0,1,2.19-.93c.06,0,6.81,3.69,9.37-.42a1.47,1.47,0,0,1,1.11-.7,1.51,1.51,0,0,1,1.24.45c.18.18,4.54,4.59,8.38,2.1a1.5,1.5,0,0,1,2.07.45,1.42,1.42,0,0,1,.24.81,1.49,1.49,0,0,1-.68,1.26c-3.86,2.5-1.53,8.45-1.51,8.51a1.5,1.5,0,0,1-1.19,2c-4.83.66-4.23,8.3-4.23,8.38a1.5,1.5,0,0,1-1.74,1.61,5.8,5.8,0,0,0-4.69.95c-2.8,2.09-3.42,6.64-3.43,6.68a1.5,1.5,0,0,1-2.6.83c-4.43-4.86-10.74.4-11,.63A1.48,1.48,0,0,1,11.91,69.71Zm-7-6.82a9.52,9.52,0,0,1,7.34,3.23c2.94-2,7.75-3.75,11.89-1.12a12.37,12.37,0,0,1,4-6.19,8.33,8.33,0,0,1,5.2-1.66c.12-3.36,1.3-7.9,5.16-9.41A11.94,11.94,0,0,1,38.6,41a11.85,11.85,0,0,1-6.22-2.66c-3,2.91-7.58,2.13-10.7.85A8.33,8.33,0,0,1,18,43.23a12.26,12.26,0,0,1-7.3,1.14c.7,4.86-2.88,8.52-5.89,10.39a9.54,9.54,0,0,1-.12,8.13ZM8.63,42.43h0Z"/><line class="cls-2" x1="42.47" y1="38.47" x2="13.36" y2="57.31"/><path class="cls-3" d="M13.36,58.81a1.5,1.5,0,0,1-.82-2.76L41.65,37.21a1.5,1.5,0,0,1,1.63,2.52L14.17,58.57A1.5,1.5,0,0,1,13.36,58.81Z"/><circle class="cls-4" cx="45.24" cy="46.18" r="7.75"/><path class="cls-5" d="M45.24,55.44a9.26,9.26,0,1,1,9.26-9.26A9.26,9.26,0,0,1,45.24,55.44Zm0-15.51a6.26,6.26,0,1,0,6.26,6.25A6.27,6.27,0,0,0,45.24,39.93Z"/><path class="cls-6" d="M48.35,39.08A7.75,7.75,0,0,1,38.14,49.29,7.75,7.75,0,1,0,48.35,39.08Z"/><path class="cls-5" d="M45.24,55.44a9.26,9.26,0,1,1,9.26-9.26A9.26,9.26,0,0,1,45.24,55.44Zm0-15.51a6.26,6.26,0,1,0,6.26,6.25A6.27,6.27,0,0,0,45.24,39.93Z"/><circle class="cls-4" cx="29.91" cy="46.18" r="7.75"/><path class="cls-5" d="M29.91,55.44a9.26,9.26,0,1,1,9.26-9.26A9.26,9.26,0,0,1,29.91,55.44Zm0-15.51a6.26,6.26,0,1,0,6.26,6.25A6.26,6.26,0,0,0,29.91,39.93Z"/><path class="cls-6" d="M33,39.08A7.75,7.75,0,0,1,22.81,49.29,7.75,7.75,0,1,0,33,39.08Z"/><circle class="cls-4" cx="37.67" cy="32.83" r="7.75"/><path class="cls-5" d="M37.67,42.08a9.26,9.26,0,1,1,9.25-9.25A9.26,9.26,0,0,1,37.67,42.08Zm0-15.51a6.26,6.26,0,1,0,6.25,6.26A6.27,6.27,0,0,0,37.67,26.57Z"/><path class="cls-6" d="M40.77,25.72a7.66,7.66,0,0,1,.65,3.11,7.75,7.75,0,0,1-7.75,7.75,7.66,7.66,0,0,1-3.11-.65A7.75,7.75,0,1,0,40.77,25.72Z"/></g></g></svg>