<svg xmlns="http://www.w3.org/2000/svg" viewBox="0 0 52.52 70.99"><defs><style>.cls-1{fill:#fbeccd;}.cls-2{fill:#373434;}.cls-3{fill:#bc8543;}.cls-4{fill:#91bc22;}.cls-5{fill:#fbcd00;}.cls-6{fill:#12100b;opacity:0.15;}.cls-7{fill:#373333;}.cls-8{fill:#8f4316;opacity:0.3;}</style></defs><g id="Réteg_2" data-name="Réteg 2"><g id="Layer_2" data-name="Layer 2"><rect class="cls-1" x="1.5" y="8.82" width="49.52" height="60.67"/><path class="cls-2" d="M51,71H1.5A1.5,1.5,0,0,1,0,69.49V8.82a1.5,1.5,0,0,1,1.5-1.5H51a1.5,1.5,0,0,1,1.5,1.5V69.49A1.5,1.5,0,0,1,51,71ZM3,68H49.52V10.32H3Z"/><polygon class="cls-3" points="43.82 1.5 1.5 8.82 43.82 8.82 43.82 1.5"/><path class="cls-2" d="M43.82,10.32H1.5a1.5,1.5,0,0,1-.26-3L43.56,0A1.51,1.51,0,0,1,45.32,1.5V8.82A1.5,1.5,0,0,1,43.82,10.32ZM19,7.32H42.32v-4Z"/><path class="cls-4" d="M41.78,59.62l-5.67-8.31H38.7a.76.76,0,0,0,.63-1.19L32,39.34h1.5a.76.76,0,0,0,.63-1.19l-4.73-6.93-3-1.56a.32.32,0,0,0-.3,0l-3,1.56-4.73,6.93a.76.76,0,0,0,.63,1.19h1.5L13.19,50.12a.76.76,0,0,0,.63,1.19h2.59l-5.67,8.31a.76.76,0,0,0,.62,1.19H41.15A.76.76,0,0,0,41.78,59.62Z"/><path class="cls-5" d="M26.55,17.89l2,4.14a.34.34,0,0,0,.24.18l4.57.66a.32.32,0,0,1,.18.55l-3.31,3.22a.32.32,0,0,0-.09.28L31,31.48a.31.31,0,0,1-.46.33l-4.09-2.15a.32.32,0,0,0-.3,0L22,31.81a.31.31,0,0,1-.46-.33l.78-4.56a.32.32,0,0,0-.09-.28l-3.31-3.22a.32.32,0,0,1,.18-.55l4.57-.66a.34.34,0,0,0,.24-.18l2-4.14A.32.32,0,0,1,26.55,17.89Z"/><path class="cls-2" d="M21.87,33.35A1.85,1.85,0,0,1,20.8,33a1.81,1.81,0,0,1-.72-1.78l.68-3.94-2.87-2.79a1.82,1.82,0,0,1,1-3.1l4-.58,1.77-3.58a1.81,1.81,0,0,1,3.26,0h0l1.77,3.58,4,.58a1.82,1.82,0,0,1,1,3.1l-2.87,2.79.68,3.94a1.82,1.82,0,0,1-2.64,1.92l-3.54-1.86-3.54,1.86A1.84,1.84,0,0,1,21.87,33.35ZM25.71,31h0Zm1.1,0h0Zm-5.48-.51h0Zm9.86,0Zm-4.93-2.35a1.88,1.88,0,0,1,.86.21l2,1-.38-2.19a1.84,1.84,0,0,1,.52-1.61L30.82,24l-2.21-.32a1.82,1.82,0,0,1-1.37-1l-1-2-1,2a1.79,1.79,0,0,1-1.37,1L21.7,24l1.59,1.56a1.81,1.81,0,0,1,.53,1.6l-.38,2.2,2-1A1.81,1.81,0,0,1,26.26,28.13Zm3.67-6.76h0Zm-6.46-.65h0Zm5.57,0h0Z"/><path class="cls-6" d="M21.17,60.81h20a.76.76,0,0,0,.63-1.19l-5.67-8.31H38.7a.76.76,0,0,0,.63-1.19L32,39.34h1.5a.76.76,0,0,0,.63-1.19l-4.73-6.93-3-1.56a.32.32,0,0,0-.3,0S37.12,55.79,21.17,60.81Z"/><path class="cls-7" d="M41.15,62.31H11.36a2.25,2.25,0,0,1-2-1.21,2.23,2.23,0,0,1,.13-2.33l4.07-6A2.26,2.26,0,0,1,12,49.28l6-8.74a2.22,2.22,0,0,1-.87-.9,2.27,2.27,0,0,1,.13-2.33l4.73-6.94a1.56,1.56,0,0,1,.54-.48l3-1.55a1.82,1.82,0,0,1,1.71,0l2.95,1.55a1.66,1.66,0,0,1,.54.48l4.73,6.93a2.27,2.27,0,0,1,.13,2.33,2.25,2.25,0,0,1-.87.91l6,8.74a2.27,2.27,0,0,1,.13,2.33,2.24,2.24,0,0,1-1.76,1.19l4.08,6a2.27,2.27,0,0,1-1.87,3.54Zm-.61-1.85h0ZM12.76,59.31h27l-4.88-7.15a1.51,1.51,0,0,1-.08-1.55,1.49,1.49,0,0,1,1.32-.8H37.3l-6.57-9.63a1.47,1.47,0,0,1-.09-1.54,1.51,1.51,0,0,1,1.33-.8h.1l-3.73-5.47-2.08-1.09-2.08,1.09-3.73,5.47h.1a1.5,1.5,0,0,1,1.24,2.34l-6.57,9.63h1.19a1.5,1.5,0,0,1,1.23,2.35ZM25.71,31h0Zm1.1,0h0Z"/><path class="cls-8" d="M31,31.48l-.78-4.56a.32.32,0,0,1,.09-.28l3.31-3.22a.32.32,0,0,0-.18-.55l-4.57-.66a.34.34,0,0,1-.24-.18l-2-4.14-.14,11.77,4.09,2.15A.31.31,0,0,0,31,31.48Z"/><path class="cls-2" d="M21.87,33.35A1.85,1.85,0,0,1,20.8,33a1.81,1.81,0,0,1-.72-1.78l.68-3.94-2.87-2.79a1.82,1.82,0,0,1,1-3.1l4-.58,1.77-3.58a1.81,1.81,0,0,1,3.26,0h0l1.77,3.58,4,.58a1.82,1.82,0,0,1,1,3.1l-2.87,2.79.68,3.94a1.82,1.82,0,0,1-2.64,1.92l-3.54-1.86-3.54,1.86A1.84,1.84,0,0,1,21.87,33.35ZM25.71,31h0Zm1.1,0h0Zm-5.48-.51h0Zm9.86,0Zm-4.93-2.35a1.88,1.88,0,0,1,.86.21l2,1-.38-2.19a1.84,1.84,0,0,1,.52-1.61L30.82,24l-2.21-.32a1.82,1.82,0,0,1-1.37-1l-1-2-1,2a1.79,1.79,0,0,1-1.37,1L21.7,24l1.59,1.56a1.81,1.81,0,0,1,.53,1.6l-.38,2.2,2-1A1.81,1.81,0,0,1,26.26,28.13Zm3.67-6.76h0Zm-6.46-.65h0Zm5.57,0h0Z"/></g></g></svg>